<?xml version="1.0" encoding="UTF-8" standalone="no"?>
<svg
   xmlns:dc="http://purl.org/dc/elements/1.1/"
   xmlns:cc="http://creativecommons.org/ns#"
   xmlns:rdf="http://www.w3.org/1999/02/22-rdf-syntax-ns#"
   xmlns:svg="http://www.w3.org/2000/svg"
   xmlns="http://www.w3.org/2000/svg"
   xmlns:sodipodi="http://sodipodi.sourceforge.net/DTD/sodipodi-0.dtd"
   xmlns:inkscape="http://www.inkscape.org/namespaces/inkscape"
   version="1.1"
   id="Layer_1"
   x="0px"
   y="0px"
   viewBox="0 294.3 650 240.00001"
   enable-background="new 0 294.3 612 235.9"
   xml:space="preserve"
   inkscape:version="0.91 r13725"
   sodipodi:docname="babel.svg"
   width="227.5"
   height="84"><metadata
     id="metadata4210"><rdf:RDF><cc:Work
         rdf:about=""><dc:format>image/svg+xml</dc:format><dc:type
           rdf:resource="http://purl.org/dc/dcmitype/StillImage" /><dc:title></dc:title></cc:Work></rdf:RDF></metadata><defs
     id="defs4208" /><sodipodi:namedview
     pagecolor="#ffffff"
     bordercolor="#666666"
     borderopacity="1"
     objecttolerance="10"
     gridtolerance="10"
     guidetolerance="10"
     inkscape:pageopacity="0"
     inkscape:pageshadow="2"
     inkscape:window-width="640"
     inkscape:window-height="480"
     id="namedview4206"
     showgrid="false"
     inkscape:snap-page="true"
     inkscape:zoom="1.0571895"
     inkscape:cx="353.31628"
     inkscape:cy="42.835457"
     inkscape:current-layer="Layer_1" /><rect
     x="0"
     y="290.78812"
     width="651.72302"
     height="243.50266"
     id="rect4194"
     style="fill:#f5da55" /><path
     d="m 562.15001,303.29999 c -1.6,7.3 -4.2,12.7 -7.7,16.3 l -2.5,-1.6 c 2.7,-6.9 4,-10.9 3.9,-11.9 l -0.7,-1.1 c -0.9,0.1 -2.1,2.5 -3.6,7.3 l -1.3,0.1 c -0.1,-0.9 -0.3,-1.6 -0.7,-2.3 l -0.6,0.1 c -11.8,32.9 -17.1,48.2 -28,73.5 -2,6.5 -3.7,10.1 -5.2,10.8 0.1,0.7 0.5,1.1 1.3,1 0.3,3.2 -0.5,6.3 -2.2,9.4 -5.1,14.5 -8.4,22.5 -10.1,23.9 l 1.1,6.9 c 0.1,0.7 -0.3,1.2 -1.1,1.2 l -1.2,0.1 c -0.2,-1.9 -0.9,-2.8 -2.1,-2.7 l -0.6,0.1 c -1.5,2.4 -2.7,5.2 -3.5,8.4 l 1.2,-0.1 c 1.6,-1 2.3,-2.2 2.2,-3.7 l 2.4,-0.2 1.3,0.5 c -1.1,1.7 -1.6,3.1 -1.5,4.1 l 0.6,1.1 -1.5,3.6 0.1,0.6 c 1.4,-0.1 2.9,0.3 4.5,1.3 1.1,-0.1 2.3,-0.6 3.6,-1.4 1.4,-0.1 6.4,-0.2 15.2,-0.2 l 4.4,-1.5 c 5.4,-0.1 6.2,0.1 10.9,-0.3 l 1.9,-0.2 1,-0.7 0.1,0.6 c 4.8,-0.4 5.2,-0.1 9,0.4 l 0.1,0.6 -2.7,0.2 0.1,1.1 c 0.8,-0.1 1.5,-0.3 2.1,-0.8 0.7,-0.1 1.1,0.3 1.2,1.1 -1.1,0.1 -2.3,0.4 -3.7,0.8 l -1.2,-0.4 c -1.9,0.5 -1.5,0.6 -2.7,0.7 l -1.9,-0.4 c 0,0.3 -0.1,0.5 -0.4,0.6 0.1,0.7 0.4,1.1 1.1,1 l 2.3,-0.2 -1,-0.4 c 0,0.3 0.2,0.5 0.6,0.5 l 9.9,-0.9 3.8,-0.8 c 0,0.3 0.2,0.5 0.5,0.5 l 1.8,-0.7 3.4,-0.3 c 2.7,-0.2 2.6,-0.4 8.3,-1.3 0,-0.3 0.1,-0.5 0.4,-0.5 l 0,0.5 c 10.9,-1.8 9.9,-1.7 12.2,-2.5 l -0.5,-1.2 c -3.1,0.7 -3,0.3 -4.6,0.5 l -8.3,0.4 -0.1,-0.6 4.6,-0.6 1.7,-0.1 0.9,-0.7 0.1,0.6 c 6.5,-0.6 8.8,1.1 39.1,-5.3 1.6,-0.1 1.5,-1.5 2.5,-4.3 -0.6,0 -1.1,-0.1 -1.6,-0.4 -2.5,1 -3.8,0.5 -8.6,1.3 -0.4,0 -0.7,-0.3 -0.9,-1.1 l 0,-0.5 4.6,0.2 c 0.8,-0.1 2.6,-0.2 5,-1.6 0.5,0.3 -0.4,0.6 0.1,0.5 l 0.8,-0.1 c 0.5,0 0.7,-0.4 0.7,-1.2 l -0.5,-1.1 c -3.1,0.3 -4.6,0.4 -7.1,1.8 l -0.1,-0.6 -3.8,0.4 c -0.1,-1.2 -0.4,-1.7 -0.9,-1.7 l -2,0.2 c -2.3,0.2 -3.4,0.1 -4.5,1 0,-0.4 -0.2,-0.6 -0.4,-0.6 l -2.2,0.2 -1.3,0.7 c 0,-0.4 -0.2,-0.6 -0.4,-0.6 l -0.8,0.7 -0.1,-0.6 -3,-0.2 -0.7,0.1 0.1,1.1 1.6,0.4 1.4,-0.1 c 0.5,0.3 1.1,0.4 1.7,0.4 l 1.3,-0.6 0,0.5 c -7.1,1.8 -7.1,1.4 -12,2.3 -0.6,-0.4 -1,-0.5 -1.2,-0.5 -0.5,0.5 0.6,0.1 0.3,0.1 -0.8,0.1 -1.2,-0.3 -1.3,-1 l 2.5,-0.3 c 0.2,0 0.3,0.2 1.7,0.5 2,-1 2.1,-1.4 3.2,-1.5 l -0.1,-1.1 c -7,1.4 -4.2,0.5 -13,1.2 l -0.4,0 -0.1,-1.1 c 11.3,-1.4 7.5,-0.6 11.3,-1.7 0,0.4 0.2,0.6 0.4,0.6 0.4,-0.4 1,-0.7 1.6,-0.7 l 0.8,-0.1 c 3.9,-0.3 5.3,0.5 13.1,-1.7 l 0,0.5 1.3,-0.6 1.2,-0.1 c -0.1,-1.2 1.7,-1.3 2.2,-1.4 l -0.1,-1.2 c -13.7,2.8 -17.3,2 -21.1,3.1 l 0,-0.5 c -3.6,0.7 -3.7,0.3 -4.6,0.4 -0.3,0 -0.7,0.3 -1.1,0.7 0,-0.4 -0.2,-0.6 -0.5,-0.6 -0.6,0 -0.3,0.2 -0.8,0.7 l 0.8,-0.7 -11.9,1.9 c 0,-0.3 -0.2,-0.5 -0.5,-0.5 -6,1.3 -4.4,1.5 -12.5,2.2 -0.4,0 -0.9,0.2 -1.5,0.6 0,-0.3 -0.2,-0.5 -0.6,-0.5 l -5,0.4 -3.3,0.8 c 0,-0.3 -0.2,-0.5 -0.6,-0.5 -1.9,0.5 -3.5,0.8 -4.8,0.9 l -0.1,0 c -0.8,0.1 0.4,-0.2 -0.2,-0.5 l -1,0.6 c -1.5,0.1 -0.7,-0.1 -5.7,0 -8.8,1.1 -7.8,1.2 -8.8,1.3 l -3.3,-0.2 c 0,0.3 -0.1,0.5 -0.5,0.6 -3.7,-0.5 -5.6,-1.1 -5.7,-1.8 0.5,-3.5 1.3,-5.3 2.6,-5.5 l 0.6,-0.1 -0.6,1.2 0.6,-0.1 c 1.2,-0.6 1.7,-1.2 1.7,-1.8 l -0.1,-1.2 -1.2,0.1 -0.1,-1.1 c -0.1,-0.9 0,-1.6 0.3,-2.3 l 2.7,-4.3 0.1,1.1 1.3,-0.1 -0.1,-1.1 -0.7,-1.1 c 0.9,-0.8 1.7,-1.3 2.3,-1.3 l -0.1,-0.6 -1.7,0.1 -0.1,-1.7 c 3.4,-7.2 5.1,-11.4 5,-12.5 l 1.2,0.5 c 0.8,-0.1 1.2,-0.5 1.1,-1.3 l -1.2,0.1 0,-0.5 c -0.1,-0.9 0.1,-1.7 0.4,-2.4 1.9,-1.9 2.7,-3.9 2.5,-6 0.4,0 0.6,0.2 0.6,0.6 1.6,-0.9 2.8,-3.3 3.7,-7.3 2.8,-5.1 6.8,-15.3 12,-30.5 10,-26.9 9.6,-29.8 11,-36.1 l -1.2,0.1 c 0.1,0.8 -0.1,1.6 -0.5,2.3 -0.8,-0.3 -1.5,-0.5 -1.9,-0.5 l 0,-0.5 c -0.2,-2.3 0.8,-5.1 3,-8.4 l 0.5,0 1,3.9 1.2,-0.1 c 0,-0.3 0.3,-1.8 0.9,-4.7 -0.1,-0.6 -0.5,-0.9 -1.4,-1 l -1.1,0.7 c -0.1,-0.8 0,-2.9 0.1,-6.4 l -1.1,0.2 z m -14.4,17.3 0.6,-0.1 c -0.9,1.6 -1.6,2.5 -2.3,2.6 l -0.1,-1.7 c 0.5,-0.1 1.1,-0.3 1.8,-0.8 l 0,0 z m -5,12 c 1.2,-4.9 2.4,-7.7 3.5,-8.4 l 0.1,0.6 c -0.6,4.6 -1.6,6.9 -3,7.1 l 0.2,2.9 c -1.1,1.5 -1.6,2.7 -1.5,3.6 l -0.6,0.1 -0.3,-4 c 0.6,-0.1 1.2,-0.7 1.6,-1.9 l 0,0 z m -1.9,6.5 c 0.1,0.7 -0.4,2.3 -1.3,4.7 l -0.6,0.1 -0.1,-1.7 c 0.7,-2 1.4,-3 2,-3.1 l 0,0 z m -32.9,72.7 0.6,1.1 c 0.9,-0.1 1.3,-0.5 1.2,-1.2 l -0.1,-0.6 -0.6,0.1 -1.1,0.6 z m 15.8,13.1 0,0.5 c 0.9,-0.1 1.8,-1.7 2.6,-4.8 l -1.2,-0.4 c -1,2.7 -1.4,4.2 -1.4,4.7 l 0,0 z m 101.2,3.5 0,0.5 -1,1.2 1.9,-0.7 0.2,0 -0.1,-1.1 -0.4,0 -0.7,0.6 c 0,-0.3 2.1,-0.9 0.5,-1.2 -0.3,0.5 0.5,0.6 -0.4,0.7 l 0,0 z m 3.9,3.6 2.7,-0.2 c -0.1,-0.7 -1.8,-0.9 -2.4,-0.9 l -0.4,0 0.1,1.1 z m -47.8,1 0.8,1 c 0,-0.3 0.1,-0.5 0.4,-0.5 l 0.6,1.1 -2.5,-0.3 c -0.2,-0.8 0.1,-1.2 0.7,-1.3 l 0,0 z m -8.2,0.9 c 0.9,-0.1 1.5,0.5 1.5,1.3 l -2.8,0 0,-0.5 c 0.3,-0.1 0.8,-0.3 1.3,-0.8 l 0,0 z m 6.4,-0.3 0.1,0.6 -2.3,0.2 -0.1,-0.6 2.3,-0.2 z m -23.2,2.4 c 0,0.3 0.2,0.5 0.6,0.5 3.7,-0.7 3.3,-0.8 5.1,-1 0.6,-0.1 0.9,0.3 1,1 l -10.3,0.9 1,0.5 -0.1,-0.6 -3.9,0.3 -0.1,-0.6 3.5,-0.3 3.2,-0.7 z m 10.6,-0.9 0,0.5 c -0.3,0 1,0.1 0.4,0.6 -2.2,-0.2 -2.3,-0.4 -3.9,-0.3 l 0,-0.5 3.5,-0.3 z m 2.6,-0.3 0,0.5 -1.9,0.2 0,-0.5 1.9,-0.2 z m -64,10.2 0.1,1.7 c -0.6,0.1 -1.1,-0.3 -1.3,-1.1 l 0,-0.5 1.2,-0.1 z m 85.6,-1.5 0.1,1.1 2,-0.2 -0.8,-0.5 0.1,0.6 2,-0.8 c 13.7,-1.5 15.3,-0.9 15.1,-2.5 l 0,-0.5 c -13.8,3.1 -15.6,2.5 -18.5,2.8 l 0,0 z m 21.4,-1.9 2,0.4 -0.1,-1.1 -2,-0.4 0.1,1.1 z m -59.2,3.9 c 0.6,0.3 -0.7,0.6 0.1,0.5 l 7,-0.6 0.1,0.6 c -2,0.2 -3.3,0.5 -3.7,0.9 0,-0.4 -0.2,-0.6 -0.6,-0.6 l -3,0.3 -0.1,-0.6 c 0.8,-0.1 -0.4,-0.1 0.2,-0.5 l 0,0 z m 32.4,-0.8 0.6,1.1 c 2.3,-0.5 1,-0.4 1.6,-0.9 0,0.4 0.2,0.6 0.4,0.6 l 1.6,-0.1 -0.1,-1.2 -4.2,-0.1 0.1,0.6 z m -39.6,4.3 -0.4,0 -0.1,-1.1 0.4,0 0.1,1.1 z m -31.3,3.8 0.1,0.6 18.4,-1.5 -0.1,-1.1 -14.7,1.2 -3.1,-0.4 -0.6,1.2 z m 20.5,-1.1 0.2,0 -0.1,-1.1 -0.2,0 0.1,1.1 z"
     id="path4196"
     inkscape:connector-curvature="0" /><path
     d="m 255.05001,355.09999 c -13,15.5 -19.7,24 -20.2,25.7 -5.3,5.5 -7.9,8.8 -7.6,9.9 -1.4,0.9 -2,1.8 -1.8,2.8 -0.4,0.1 -0.7,-0.1 -0.8,-0.5 -2.3,3.7 -5.6,6 -10.1,7.1 l -4.7,1.1 c -0.6,0.1 -0.9,0.6 -0.9,1.4 l 0.1,0.6 1.8,-0.4 0.1,0.5 -4,1.5 -7.1,1.6 -3.7,0.2 c -0.5,0.5 2.9,-0.1 1.6,0.3 l -4.6,1.1 c -2.8,0.7 -4.4,0.4 -4.6,-0.7 l -0.5,0.1 c 0.3,1.1 0,1.8 -0.8,2 l 0.9,-0.2 -0.4,-1.7 -8.4,2 0.9,0.4 c -0.1,-0.4 -0.5,-0.5 -1.3,-0.3 l -1.1,0.9 -1.3,-0.3 c -1.2,0.7 -2,1.1 -2.2,1.1 l -1.3,-0.3 c -3.5,2 -0.9,2 -1.1,2 l 0.3,1.1 2,-0.5 3.1,-0.2 -0.3,1.3 c -11.4,3 -3.1,1.3 -6.2,2 l -0.6,0.1 0.3,1.1 1.8,-0.4 0.1,0.6 c -2.3,0.5 -3.6,1 -4,1.5 l -0.1,-0.6 c -3,0.7 -6,3 -9,6.8 0.5,2.2 -6,4.9 24.6,-2.2 2.1,-0.1 3.3,-0.1 3.6,-0.2 -0.1,-0.4 0.1,-0.6 0.5,-0.7 3.4,-0.4 1.8,0.2 3.9,-0.3 l 6.6,-1.5 -1.4,0.8 c -0.1,-0.3 0.1,-0.5 0.4,-0.6 0.8,0.2 1.6,0.1 2.5,-0.1 l 0.4,1.7 -26.1,41.4 -5.8,7.2 -2.8,9.5 0.5,-0.1 2.8,-1.2 -0.9,3.7 0.3,1.1 0.8,1 c -0.4,0.1 -0.5,0.3 -0.4,0.7 l 0.1,0.6 1.2,-0.3 c 1.7,-1.5 2.4,-2.9 2.2,-4.1 1.9,0.3 3.1,0.4 3.7,0.3 l 0.1,0.6 c -1.1,0.3 -1.7,1.2 -1.8,2.7 l 0.1,0.6 0.6,-0.1 c 9.5,-10.3 32.6,-45.6 51.2,-69.6 -0.6,-2.6 9.1,-6.2 29.1,-10.8 l 0.6,-0.1 c 0.7,3.1 -0.8,10.7 -4.6,22.8 -2.5,7.3 -3.6,11.3 -3.5,11.9 -3.2,9.7 -4.7,14.9 -4.5,15.7 l -7.1,23.2 c -4.6,11.9 -8.1,24.4 -10.5,37.6 0.4,-0.1 1.1,0 1.9,0.2 l 1,-0.9 c 0.1,0.4 0.3,0.5 0.8,0.5 l -0.4,-1.7 3.1,-0.1 c 0.9,-0.2 1.7,-1.4 2.3,-3.5 -0.1,-3.1 0.5,-4.8 1.9,-5.2 1.9,-7.4 3.1,-11.2 3.5,-11.3 1.8,-7.4 3.1,-11.6 4,-12.7 2.7,-9.6 4.6,-14.6 5.9,-14.9 l 0.3,1.2 -1.9,5.1 c -3.4,15.1 -6.9,27.1 -10.4,35.9 l 1,4.4 0.6,-0.1 c 8.5,-18.2 20.6,-54.2 36.5,-108 0.5,-4.7 2.7,-8.4 6.8,-11 l -0.9,-0.9 -0.1,-0.5 c 1.8,-0.4 3.1,-1.1 3.8,-2.1 -0.1,-0.4 -1.7,-1 -4.8,-1.8 l 9.4,-40.2 c 2.8,-12 4.7,-22.5 5.7,-31.7 l -0.1,-0.6 c -1.9,-1.2 -3.8,-2.9 -5.5,-5.1 0,-1.4 0,-2.2 0,-2.4 l -0.1,-0.5 -0.5,0.1 c -5.8,8.8 -17.4,24.1 -34.5,45.9 l 0,0 z m 13.3,9.1 c 0.5,2.1 -0.3,6 -2.3,11.7 -0.6,7.2 -3.2,11.3 -7.7,12.4 l -0.1,-0.6 -4,1.5 -1.8,0.4 c -0.9,0.2 -1.7,0.2 -2.5,-0.1 l -0.4,-1.6 c -0.1,-0.6 5.6,-8.6 17.4,-23.9 l 1.4,0.2 z m -9.2,25 1.3,-0.3 0.3,1.1 c -6.3,1.9 -9.8,2.9 -10.5,3.1 -0.4,0.1 -1,0.4 -1.7,1 -0.1,-0.4 -0.9,-0.4 -2.5,-0.1 -0.3,-1.1 4.1,-2.7 13.1,-4.8 l 0,0 z m -62.1,16.8 1.4,-0.3 -0.3,-1.2 -1.4,0.3 0.3,1.2 z m 18.3,-4.8 0.3,1.1 -3,0.2 -0.1,-0.6 2.8,-0.7 z m -35,11.5 0.1,0.6 -1.9,0.4 -0.1,-0.6 1.9,-0.4 z m -3.5,7.3 0.1,0.5 -2.3,0.5 -0.3,-1.1 2.5,0.1 z m 5.5,-1.2 0.1,0.5 -4.2,1 -0.1,-0.5 4.2,-1 z m 7.3,-1.2 0.1,0.6 -11,2.5 -0.3,-1.1 c 6.4,-1.1 5.7,-0.7 11.2,-2 l 0,0 z m 55.1,-12.8 0.9,1 c -1.3,0.3 -2.3,0.7 -2.8,1.2 l -1.3,-0.2 c -2,0.8 -3.8,1.4 -5.2,1.7 l -1.2,0.3 c -0.7,0.2 -1.2,-0.1 -1.5,-0.8 l 8.3,-1.9 2.8,-1.3 z m 5.9,-1.3 5.9,-1.4 0.1,0.6 c -3.2,0.7 -5.7,1.5 -7.5,2.4 l -0.1,-0.6 c 0.5,-0.1 1,-0.5 1.6,-1 l 0,0 z m -62,16.8 2.8,-0.6 0.3,1.1 c -1.2,0.3 -0.3,0.3 -1.8,1 -2.9,0.3 -2.3,-0.1 -6.9,1 l -0.1,-0.6 5.7,-1.9 z m 7.6,-1.3 c 0.8,-0.2 1.3,0.1 1.4,0.9 l -1.7,0.4 c -0.7,0.2 -1.2,-0.1 -1.5,-0.9 l 1.8,-0.4 z m -31.3,63.2 0.1,0.6 c 0.8,-0.2 1.1,-0.6 0.9,-1.4 l -0.1,-0.6 c -0.7,0.2 -1,0.6 -0.9,1.4 l 0,0 z m 2.4,10 c 0.2,0.7 0.6,1 1.4,0.8 0.8,-0.2 1.1,-0.6 0.9,-1.4 l -0.1,-0.6 -1.2,0.3 -1,0.9 z m 63.8,17.2 c 0.8,-0.2 1.2,0.1 1.4,0.8 l 0.1,0.6 -2.3,0.5 c 0.2,-0.8 0.2,-1.4 0.1,-1.8 l 0.7,-0.1 z"
     id="path4198"
     inkscape:connector-curvature="0" /><path
     d="m 323.75001,324.39999 c -5.2,3.7 -11.1,7.5 -17.7,11.2 l 0.1,1.1 c 0.4,0 1,-0.3 1.8,-0.8 0.8,-0.1 1.2,0.3 1.3,1 l 1.1,-0.6 0.5,0 0,0.5 c 0.1,0.6 -4.1,3.8 -12.3,9.6 l 0.6,1.2 -0.5,0 -1.3,-0.5 c 0,0.4 -0.5,0.7 -1.7,0.8 l 0,0.5 1.3,1.6 c -0.4,0 -1.1,-0.1 -1.9,-0.5 -2.7,0.2 -5.3,2.2 -7.9,5.8 l 0.6,1.1 c 2.3,-2.1 3.6,-3.2 4,-3.2 l 0.1,1.7 c -0.4,0 -1,0.3 -1.8,0.8 l 1.5,2.1 c 2.7,-3 5.7,-5.5 8.9,-7.6 1.6,0.5 2.5,1 2.5,1.5 l 1.2,-0.1 c 9,-6.6 17.8,-11.3 26.5,-14.2 l 0.1,1.1 c -1.6,2.4 -2.7,3.6 -3.3,3.7 0.1,0.8 0.3,1.5 0.7,2.2 0.1,1.5 -3.8,11.5 -11.8,30 -18.3,42.9 -33.6,74.7 -46,95.3 0,0.4 0.3,1 0.8,1.7 3.1,-0.7 5,-1.5 5.8,-2.2 l 0.5,0 0.1,1.1 1.3,-0.1 1.1,-0.6 c 0,0.3 0.4,0.5 1.2,0.4 l 0.1,1.2 c 0.1,1.1 -0.6,2.8 -1.9,5.2 -1.3,1.4 -2.7,4.4 -4.1,8.9 l 0.1,0.6 1.2,-0.1 c 5,-5.6 8.7,-11 11.3,-16.4 14.5,-4.3 25.5,-8.4 33.2,-12.5 7.8,-0.7 13.6,-2.7 17.6,-6 l -0.1,-0.6 -3,0.9 -0.6,0.1 -0.1,-0.6 c 5.7,-0.8 9.6,-2.1 11.7,-3.8 11,-8.5 19.3,-14.5 25,-18 17.4,-12.8 25.6,-25 24.6,-36.8 -0.1,-1.2 -3.9,-6 -11.5,-14.4 -0.1,-1.6 2.5,-3.9 7.8,-6.9 l 15.2,-13.2 c 3.4,-4.3 5.4,-11.3 6,-21 l -0.2,-2.2 c -0.6,-6.7 -5.5,-12.1 -14.7,-16.3 -5.5,-3.7 -15.3,-5.7 -29.4,-6.1 -11.4,0.8 -26.7,5 -45.6,12.4 l 0,0 z m 81.4,0.8 -0.6,1.2 -16.8,-7.1 c 11.3,0.5 17.1,2.4 17.4,5.9 l 0,0 z m -68.2,46.8 c 1.2,-6.3 2.5,-9.8 3.9,-10.6 l 12.7,-28.4 c -0.1,-1.7 2.5,-3.1 8,-4.1 l 1.8,-0.2 0.1,1.7 c 5.4,-0.9 8.7,-1.4 10.1,-1.5 10,-0.9 15.2,1.2 15.6,6 l 1.2,-0.1 -0.2,-2.7 1.2,-0.1 c 2.9,1.6 4.4,3.5 4.6,5.8 0.1,1.6 -0.7,3.6 -2.4,6 -0.8,0.1 -1.2,-0.5 -1.3,-1.6 l -1.2,0.1 -0.4,3.4 c -5.1,7.7 -8.7,11.6 -11,11.8 -2,2.8 -3.3,4.2 -3.9,4.2 -1.6,1.9 -5.9,5.2 -13,9.7 -2.4,0.2 -11.1,3.6 -26.2,10.2 -0.7,-0.3 -1.6,-0.4 -2.4,-0.3 l -0.1,-1.1 c -0.2,-2.1 0.8,-4.8 2.9,-8.2 l 0,0 z m 69.8,-35 0.1,1.2 c -0.6,0 -1.7,-1.8 -3.5,-5.4 l -0.1,-1.1 c 1.1,-0.1 2.3,1.7 3.5,5.3 l 0,0 z m -110.8,13.6 0.1,0.6 c -0.4,0 -1,0.3 -1.8,0.7 l -0.5,0 -0.1,-1.1 2.3,-0.2 z m 36.7,-0.9 0.1,1.7 c -0.6,0 -1.3,0.9 -2.2,2.4 l -0.1,-1.1 c 1,-1.3 1.5,-2.3 1.5,-3 l 0.7,0 z m -5.7,11.8 0.2,2.2 -0.6,0.1 -0.2,-2.2 0.6,-0.1 z m -1.4,4.1 c -0.1,1.9 -0.6,2.9 -1.5,3 l -0.6,0.1 c 0.7,-1.3 1,-2.3 0.9,-3 l 1.2,-0.1 z m -2.6,5.9 0.1,0.6 -1,1.8 -1.2,0.1 -0.1,-0.6 c 1.2,-0.1 1.8,-0.7 1.7,-1.9 l 0.5,0 z m -2.5,5.3 -0.4,2.9 -0.5,0 -0.2,-2.9 1.1,0 z m 61.6,2.1 2.5,1.5 c 0.1,0.7 -0.3,1.2 -1.1,1.2 -1.1,-0.7 -1.9,-1 -2.5,-0.9 l 0,-1.7 1.1,-0.1 z m -48.2,6.4 0.1,1.1 -2.4,0.2 -0.1,-1.1 2.4,-0.2 z m 38.9,4.1 c 1.7,0.8 2.5,1.5 2.6,2.1 l 0,0.5 c -1.6,0.1 -3.1,-0.7 -4.5,-2.5 l 1.9,-0.1 z m -50.1,12.3 c 6.8,-0.6 17.5,-3.8 32.2,-9.6 l 3.7,-0.3 c 7.4,-0.6 12.9,0.8 16.6,4.3 l 0.2,2.2 c -2.7,7.8 -5.7,12.4 -9,13.8 l -15.1,12.2 c -11.3,7.4 -17.4,11.1 -18.4,11.2 -18,9.9 -29.2,15 -33.6,15.4 l -0.6,0.1 c 0.4,-2.1 8.4,-18.5 24,-49.3 l 0,0 z m 16.3,-6.5 0.1,0.6 -2.4,0.2 -0.1,-0.6 2.4,-0.2 z m 54.5,-2.5 0.4,4.6 c -0.6,1.1 -1.1,1.7 -1.7,1.8 l -0.7,-7.8 c 1.3,0.4 2,0.9 2,1.4 l 0,0 z m -92.3,39.2 c -0.8,3.8 -1.6,5.8 -2.4,5.8 l 0,-0.5 c -0.3,-1.8 0.5,-3.6 2.4,-5.3 l 0,0 z m 15.1,21.4 c 4.4,-0.8 16.5,-7.1 36.3,-19 l 0.1,1.1 c 0,0.5 -1.6,2 -5.1,4.4 -10,5 -16,8.3 -17.8,10 -10.9,3.8 -16.3,6.2 -16.2,7.1 -9.7,3.8 -16,6.6 -19.1,8.4 -0.7,0.1 -1.8,-0.2 -3.1,-0.9 -0.2,-2 0.7,-3.5 2.6,-4.7 1.7,-0.1 3.3,0.1 4.8,0.7 1.8,-0.9 4.9,-1.9 9.4,-3.1 l -0.1,-1.1 -3.7,0.3 c 0.4,-0.7 3.9,-2.3 10.4,-4.9 l 1.8,-0.2 0,0.5 c -3.1,0.3 -4.8,1.2 -5.2,2.8 0.1,0.7 0.5,1.1 1.3,1 2.5,-1.2 3.6,-2.1 3.6,-2.4 l 0,0 z m -18.7,-13.7 0,0.5 c 0.1,0.8 -0.3,1.3 -1.1,1.3 l -0.1,-0.6 c 0,-0.5 0.4,-1 1.2,-1.2 l 0,0 z m 28.4,7.8 c -1.4,0.1 -4.1,1.3 -8.1,3.5 l -0.6,0.1 -0.1,-1.1 c 2.9,-0.3 5.5,-1.4 7.5,-3.4 0.8,-0.1 1.2,0.2 1.3,0.9 l 0,0 z m -29.4,8.2 1.8,-0.2 0.1,0.6 c -0.4,0 -1,0.3 -1.8,0.7 l -1.2,0.1 c -0.1,-0.6 0.3,-1 1.1,-1.2 l 0,0 z m -12.1,6.7 1.2,0.5 c -0.4,3.5 -1.5,5.3 -3.1,5.4 -1.4,-0.6 -2.6,-0.9 -3.7,-0.8 l -0.1,-1.7 c -0.1,-0.6 0.3,-1 1.1,-1.2 0.8,-0.1 1.2,0.5 1.3,1.6 2,-2.5 3.1,-3.8 3.3,-3.8 l 0,0 z"
     id="path4200"
     inkscape:connector-curvature="0" /><path
     d="m 88.350008,319.39999 c -6.8,5 -14.6,9.9 -23.3,14.7 l 0.1,1.5 c 0.6,0 1.3,-0.4 2.3,-0.9 1,-0.1 1.6,0.3 1.6,1.3 l 1.6,-0.9 0.8,-0.1 0.1,0.7 c 0.1,0.7 -5.4,5 -16.3,12.7 l 0.9,1.4 -0.8,0.1 -1.7,-0.6 c 0,0.5 -0.7,0.8 -2.3,0.9 l 0.1,0.8 1.8,2 c -0.6,0 -1.4,-0.1 -2.4,-0.5 -3.5,0.3 -7,2.9 -10.4,7.7 l 0.9,1.4 c 3,-2.7 4.7,-4.1 5.2,-4.1 l 0.2,2.2 c -0.5,0 -1.3,0.4 -2.3,0.9 l 1.9,2.8 c 3.6,-3.9 7.5,-7.2 11.9,-9.9 2.2,0.6 3.3,1.2 3.3,2 l 1.6,-0.1 c 11.7,-8.7 23.3,-14.9 34.8,-18.8 l 0.1,1.5 c -2.1,3.2 -3.6,4.8 -4.4,4.9 0.1,1.1 0.5,2 1.1,2.9 0.2,2 -5,15.1 -15.6,39.5 -24.2,56.6 -44.4,98.4 -60.7,125.6 0,0.5 0.4,1.3 0.9,2.2 4,-1 6.6,-1.9 7.7,-2.9 l 0.9,-0.1 0.1,1.5 1.5,-0.1 1.6,-0.9 c 0,0.5 0.6,0.7 1.6,0.6 l 0.1,1.5 c 0.1,1.5 -0.7,3.8 -2.6,6.9 -1.7,1.9 -3.4,5.8 -5.3,11.7 l 0.1,0.7 1.5,-0.1 c 6.5,-7.3 11.5,-14.5 14.9,-21.5 19.1,-5.6 33.6,-11.1 43.7,-16.5 10.1,-0.9 17.900002,-3.5 23.100002,-7.9 l -0.1,-0.8 -3.8,1.1 -0.9,0.1 -0.1,-0.8 c 7.4,-1.1 12.6,-2.8 15.4,-5 14.5,-11.2 25.4,-19.1 32.8,-23.8 22.9,-16.8 33.7,-33 32.4,-48.4 -0.1,-1.6 -5.2,-7.9 -15.1,-18.9 -0.2,-2.1 3.3,-5.1 10.3,-9.1 l 19.9,-17.5 c 4.4,-5.7 7.1,-14.9 8,-27.6 l -0.3,-3 c -0.8,-8.9 -7.2,-16.1 -19.4,-21.6 -7.2,-4.9 -20.1,-7.5 -38.7,-7.8 -15.3,1.4 -35.5,6.8 -60.300002,16.4 l 0,0 z m 107.200002,1.3 -0.6,1.5 -22.2,-9.3 c 14.8,0.6 22.4,3.2 22.8,7.8 l 0,0 z m -89.8,61.6 c 1.5,-8.2 3.2,-12.9 5.1,-14 l 16.6,-37.3 c -0.2,-2.3 3.3,-4.1 10.6,-5.3 l 2.4,-0.2 0.2,2.1 c 7.2,-1.1 11.6,-1.7 13.3,-1.9 13.2,-1.1 20,1.5 20.6,8 l 1.5,-0.1 -0.3,-3.8 1.6,-0.1 c 3.9,2.1 6,4.7 6.2,7.8 0.2,2.1 -0.9,4.7 -3.4,7.8 -1,0.1 -1.6,-0.6 -1.7,-2.1 l -1.6,0.1 -0.4,4.5 c -6.7,10 -11.5,15.1 -14.5,15.4 -2.7,3.7 -4.4,5.6 -5.1,5.7 -2.1,2.5 -7.8,6.8 -17.2,12.8 -3.1,0.3 -14.6,4.7 -34.5,13.4 -1,-0.5 -2,-0.6 -3.2,-0.5 l -0.1,-1.4 c -0.2,-2.9 1,-6.5 3.9,-10.9 l 0,0 z m 91.9,-46 0.1,1.4 c -0.8,0.1 -2.3,-2.3 -4.5,-7.1 l -0.1,-1.4 c 1.4,-0.2 2.9,2.2 4.5,7.1 l 0,0 z m -146.000002,17.8 0.1,0.7 c -0.5,0 -1.3,0.4 -2.3,0.9 l -0.8,0.1 -0.1,-1.4 3.1,-0.3 z m 48.3,-1.2 0.200002,2.2 c -0.700002,0.1 -1.700002,1.1 -2.900002,3.2 l -0.1,-1.5 c 1.4,-1.7 2.1,-3 2.1,-3.9 l 0.7,0 z m -7.4,15.6 0.3,3 -0.8,0.1 -0.3,-3 0.8,-0.1 z m -1.9,5.4 c -0.2,2.5 -0.8,3.8 -2.1,3.9 l -0.8,0.1 c 0.9,-1.7 1.4,-2.9 1.3,-3.8 l 1.6,-0.2 z m -3.3,7.8 0.1,0.7 -1.4,2.4 -1.5,0.1 -0.1,-0.7 c 1.5,-0.1 2.2,-0.9 2.1,-2.4 l 0.8,-0.1 z m -3.4,7 -0.4,3.7 -0.8,0.1 -0.3,-3.7 1.5,-0.1 z m 81.100002,2.7 3.3,2 c 0.1,1 -0.4,1.6 -1.4,1.7 -1.4,-0.9 -2.5,-1.3 -3.3,-1.3 l -0.2,-2.2 1.6,-0.2 z m -63.5,8.5 0.1,1.4 -3.100002,0.3 -0.1,-1.4 3.100002,-0.3 z m 51.2,5.2 c 2.2,1 3.3,2 3.4,2.8 l 0.1,0.7 c -2.1,0.2 -4,-0.9 -5.8,-3.3 l 2.3,-0.2 z m -66.000002,16.2 c 9,-0.8 23.200002,-5 42.500002,-12.6 l 4.7,-0.4 c 9.8,-0.8 17.1,1 21.9,5.6 l 0.3,3 c -3.6,10.4 -7.6,16.4 -11.9,18.3 l -20,15.9 c -14.9,9.8 -22.9,14.7 -24.1,14.8 -23.700002,13.1 -38.500002,19.8 -44.200002,20.3 l -0.9,0.1 c 0.8,-2.8 11.3,-24.4 31.7,-65 l 0,0 z m 21.600002,-8.5 0.1,0.7 -3.2,0.3 -0.1,-0.7 3.2,-0.3 z m 71.8,-3.2 0.5,5.9 c -0.7,1.6 -1.4,2.4 -2.2,2.4 l -0.9,-10.4 c 1.7,0.7 2.5,1.4 2.6,2.1 l 0,0 z m -121.700002,51.6 c -1,5.1 -2.1,7.7 -3.2,7.8 l -0.1,-0.7 c -0.2,-2.6 0.9,-4.9 3.3,-7.1 l 0,0 z m 20,28.2 c 5.8,-1.1 21.700002,-9.5 47.800002,-25 l 0.1,1.4 c 0.1,0.6 -2.2,2.5 -6.7,5.8 -13.3,6.5 -21.100002,11 -23.400002,13.3 -14.4,5 -21.5,8.1 -21.4,9.3 -12.8,5.1 -21.2,8.8 -25.2,11.1 -0.9,0.1 -2.3,-0.3 -4.1,-1.1 -0.2,-2.6 0.9,-4.7 3.5,-6.4 2.2,-0.2 4.4,0.1 6.4,1 2.4,-1.2 6.5,-2.6 12.4,-4 l -0.1,-1.5 -4.7,0.4 c 0.6,-0.8 5.1,-2.9 13.7,-6.4 l 2.4,-0.2 0.1,0.7 c -4,0.3 -6.3,1.6 -6.8,3.7 0.1,0.9 0.6,1.4 1.6,1.3 2.9,-2 4.4,-3.1 4.4,-3.4 l 0,0 z m -24.6,-18.1 0.1,0.7 c 0.1,1 -0.4,1.6 -1.4,1.7 l -0.1,-0.7 c -0.1,-0.9 0.4,-1.5 1.4,-1.7 l 0,0 z m 37.4,10.2 c -1.9,0.2 -5.4,1.7 -10.7,4.7 l -0.8,0.1 -0.1,-1.5 c 3.8,-0.3 7.1,-1.8 9.8,-4.5 1.1,-0.2 1.7,0.3 1.8,1.2 l 0,0 z m -38.8,10.8 2.4,-0.2 0.1,0.8 c -0.6,0 -1.3,0.4 -2.3,0.9 l -1.5,0.1 c -0.1,-0.7 0.3,-1.3 1.3,-1.6 l 0,0 z m -15.9,8.9 1.7,0.7 c -0.6,4.5 -1.9,6.8 -4.2,7 -1.8,-0.8 -3.4,-1.1 -4.9,-1 l -0.2,-2.2 c -0.1,-0.9 0.4,-1.4 1.5,-1.7 1,-0.1 1.6,0.6 1.7,2.1 2.7,-3.3 4.2,-4.9 4.4,-4.9 l 0,0 z"
     id="path4202"
     inkscape:connector-curvature="0" /><path
     d="m 480.15001,304.69999 -1.3,-0.5 -21.3,3.3 c -0.8,-0.4 -1.8,-0.6 -2.9,-0.5 -1.2,0.1 -3,0.5 -5.7,1.2 l -10.3,4.3 0.8,1.3 c 0.5,0 1.2,-0.3 2.1,-0.8 l 3.6,0.3 -0.5,3.4 c -3.3,1.5 -5.3,3.7 -5.8,6.6 -5,2.2 -7.5,3.8 -7.5,4.8 l 0.1,0.6 0.8,-0.1 1.4,-0.7 1.6,1.9 0.2,2.6 c 0.1,0.8 -8.4,18.7 -25.4,53.6 -14.7,33.6 -22.4,52 -23.2,55.3 -5,1.4 -8,3.5 -8.8,6.2 0.1,0.9 1.6,1.4 4.5,1.7 l 0.1,1.3 -1.3,2.2 0.2,2.6 c 0.1,1.4 3.8,2.4 11,3.2 0,-0.5 0.2,-0.7 0.7,-0.8 0.1,1.6 -0.3,4.8 -1.4,9.6 l 0.8,-0.1 c 3,-4.1 4.4,-6.9 4.3,-8.5 l 0.6,-0.1 c 0.7,-0.1 1.5,0.8 2.4,2.6 -0.9,0.4 -4.1,7.6 -9.5,21.7 l 0.8,1.3 0.8,-0.1 c 6.7,-16.9 10.9,-26.3 12.6,-28.1 8.8,-0.8 23.9,-2.3 45.5,-4.6 l 1.3,-0.8 c 0,0.5 0.3,0.7 0.8,0.6 l 1.4,-0.1 1.3,-0.8 c 0,0.5 0.3,0.7 0.8,0.6 l 16.3,-1.4 c 4.3,-0.4 6.4,-1.7 6.2,-3.9 -0.1,-0.6 2.5,-1.3 7.7,-2 0.5,0 1.2,0.1 2.2,0.4 0,-0.4 2.5,-0.8 7.7,-1.3 0.1,-2.7 1,-4.2 2.6,-4.3 l -0.1,-1.3 c -1.4,0.1 -3.1,0.5 -5,1.1 -3.4,-0.2 -5.6,-0.4 -6.5,-0.8 -0.9,0.5 -1.6,0.8 -2.1,0.8 l -11.4,0.4 -1.4,0.7 c 0,-0.4 -0.3,-0.6 -0.8,-0.5 l -0.6,0.1 -1.5,0.7 c 0,-0.4 -1.2,-0.7 -3.6,-1 l -1.4,0.8 -2.8,0.2 -0.1,-0.7 c 14.6,-1.6 21.9,-3.6 21.7,-6 0.9,-0.1 1.4,0.4 1.5,1.3 l 4.3,-1.1 -0.1,-1.3 -35,1 c 0,0.5 -0.2,0.7 -0.7,0.8 l -4.3,-0.4 c -1.1,0.1 -2,0.4 -2.7,1 l -1.6,-0.6 c -4.4,0.4 -7.7,0.9 -9.9,1.6 -3,-0.2 -6.3,-0.2 -10,0.1 l -7.9,0.7 -3.6,-0.4 c -0.2,-2.3 4.3,-13.7 13.6,-34.2 2.7,-6.9 5.2,-11.2 7.5,-12.8 0.5,0 1.2,0.1 2.2,0.5 l 5.6,-1.9 2.9,0.5 c 4.8,-0.4 10.4,-1.8 16.8,-4.1 1.6,-0.1 2.8,0 3.6,0.3 l 4.3,-1 12.7,-1.1 c 5.4,-0.5 11.3,-1.7 17.6,-3.6 l -0.1,-1.3 c -2.4,0.2 -3.6,-0.2 -3.7,-1.1 -0.2,-1.8 -1.9,-2.5 -5.2,-2.2 l -0.1,-1.3 3.5,-1 9.2,-0.8 -0.1,-1.3 c -0.4,0 -2.2,0 -5.7,-0.1 l -0.1,-1.4 3.6,-0.3 c 0.9,-0.1 1.4,-0.6 1.3,-1.4 -4.8,0.1 -7.2,-0.1 -7.2,-0.7 -33.3,1.6 -49.9,1.9 -50,0.9 -0.5,0 -1.2,0.3 -2.1,0.9 l -0.9,-1.4 c 8.8,-18.7 14,-28.2 15.5,-28.3 0.1,0.7 -0.3,1.9 -1.1,3.5 l 0.1,0.6 1.4,-0.1 c 3.5,-8.4 6.4,-12.7 8.9,-12.9 10.4,-0.9 -1.5,-1.6 20.9,-5.1 0.9,0.4 1.6,0.6 2,0.5 8.8,-1.8 21,-3.6 36.7,-5.5 l -0.1,-1.3 -8.4,0.8 -0.1,-1.3 c 1,-0.1 1.8,-0.4 2.5,-1 l 0.1,0.7 c 0.5,0 1.1,-0.3 1.9,-0.9 1.4,-0.1 2.5,0 3.3,0.4 2.9,-0.8 5.2,-1.2 7,-1.4 l 5.2,-0.5 c 1.3,-0.8 1.9,-1.5 1.8,-2.2 l 0,-0.6 c -1.3,0.1 -2.8,0 -4.6,-0.3 -0.1,-0.7 0.3,-1.2 1.2,-1.4 l 9.7,-0.9 4.5,-1.1 c 0,0.5 0.3,0.7 0.6,0.7 0.5,0 1.1,-0.3 1.9,-0.9 2.3,0.3 3.7,0.4 4,0.3 1.8,-1.7 3.9,-3.1 6.2,-4 -1,-1 -1.5,-1.8 -1.6,-2.5 l -6.5,0.6 c 0,-0.5 -0.3,-1.1 -0.7,-2 0,-0.6 1.4,-1.2 4.4,-1.8 l 1.3,0.5 1.2,-0.7 c 0,0.4 0.3,0.6 0.7,0.5 l 1.2,-0.7 c 0,0.4 0.3,0.6 0.7,0.5 l 0.6,-0.1 -0.1,-1.3 c -0.9,0.1 -3.3,0.1 -7.1,0 l -1.2,0.8 -0.1,-0.7 c -30.5,2.5 -47.8,3.9 -51.9,4.3 -0.5,0 -2.7,0 -6.4,-0.1 0,0.5 -0.4,0.8 -1.3,0.8 l -1.3,-0.6 -4.5,1.1 c -1,0.1 -2.8,0 -5.3,-0.2 -0.7,0.5 -1.5,0.9 -2.5,1 -1,0.1 24.2,-1.4 23.4,-1.8 l -3.9,1.1 -0.6,0.1 c -1.6,0.1 -3.6,0.1 -6,-0.2 -0.7,0.5 -1.7,0.9 -3.2,1 -1,0.1 -1.9,-0.1 -2.6,-0.5 -1.1,0.3 -4.3,1.1 -9.7,2.1 l 0,0 z m 1.6,4 c 0,0.5 0.5,0.7 1.3,0.6 l 0.1,1.3 -1.3,0.1 c -1,0.1 -1.9,-0.1 -2.6,-0.5 -0.7,0.6 -1.6,0.9 -2.5,1 l 0.4,0 -3.6,-0.4 -0.1,-0.6 c 4.4,-0.3 5.8,-0.8 8.3,-1.5 l 0,0 z m 3.3,-0.3 0.7,-0.1 0.1,1.3 -2,0.2 c 0,-0.7 0.3,-1.2 1.2,-1.4 l 0,0 z m 7.7,-0.8 0.1,0.7 c -1.5,0.1 -3.4,0.5 -5.7,1.2 l -0.7,0.1 0.6,-1.4 5.7,-0.6 z m -56.8,6.5 2.2,-0.2 -0.1,-1.3 -2.2,0.2 0.1,1.3 z m 15.7,-1.4 0.8,-0.1 1.5,0.6 c 0.1,0.9 -0.4,1.4 -1.3,1.4 l -2.2,0.2 -0.1,-0.7 c -0.1,-0.7 0.4,-1.1 1.3,-1.4 l 0,0 z m 50.3,2.9 0,0.6 -4.5,0.4 0,-0.6 4.5,-0.4 z m -12.9,1.9 0.1,0.7 -2.6,0.2 -0.1,-0.7 2.6,-0.2 z m 12.4,1 9,-1.5 4.6,0.2 0.1,0.7 c -2.2,0.2 -4.1,0.6 -5.7,1.2 0,-0.5 -0.9,-0.9 -2.7,-1.1 l -7.1,2 c -1.4,-0.8 -2.1,-1.4 -2.1,-1.8 l 3.9,0.3 z m -8.9,2 c 0.9,-0.1 1.3,0.3 1.4,1.2 l -3.8,0.4 -0.1,-1.3 2.5,-0.3 z m -7.9,-0.4 0.1,0.7 23.4,-1.1 -0.1,-0.7 -23.4,1.1 z m 1.4,1.8 0,0.6 -5.1,0.5 0,-0.6 5.1,-0.5 z m -33.5,26.5 0.1,0.7 1.5,-0.1 c 0,-0.5 0.1,-1.2 0.5,-2.1 l -0.1,-1.3 c -0.8,0.1 -1.5,1 -2,2.8 l 0,0 z m -51.5,74.8 0.1,0.6 c 0.1,0.9 -0.4,1.4 -1.4,1.5 l -0.1,-0.6 c -0.1,-0.8 0.4,-1.2 1.4,-1.5 l 0,0 z m -1.3,2.8 c 0.1,1.3 -0.8,4.5 -2.6,9.7 l -2.2,0.2 c -0.1,-0.9 1.1,-4.1 3.4,-9.7 l 1.4,-0.2 z m 24.1,20.9 c 0.1,0.7 -1.1,1.5 -3.4,2.3 l -4.4,-0.3 -1.4,0.1 -0.1,-1.3 9.3,-0.8 z m 4.3,0.4 0.1,0.6 -3.6,0.3 -0.1,-0.6 3.6,-0.3 z"
     id="path4204"
     inkscape:connector-curvature="0" /></svg>
