<?xml version="1.0" encoding="UTF-8" standalone="no"?>
<svg
   xmlns:dc="http://purl.org/dc/elements/1.1/"
   xmlns:cc="http://creativecommons.org/ns#"
   xmlns:rdf="http://www.w3.org/1999/02/22-rdf-syntax-ns#"
   xmlns:svg="http://www.w3.org/2000/svg"
   xmlns="http://www.w3.org/2000/svg"
   id="svg3055"
   version="1.1"
   width="500"
   height="300">
  <defs
     id="defs3059" />
  <rect
     style="fill:#dfdfdf;fill-opacity:1;stroke:none"
     id="rect3870"
     width="510.16489"
     height="304.63083"
     x="-4.8936677"
     y="-2.1839905" />
  <path
     style="fill:#006532;stroke:none;stroke-width:1px;stroke-linecap:butt;stroke-linejoin:miter;stroke-opacity:1;fill-opacity:1"
     d="M 210.42772,105.4767 147.42174,-0.34886499 -1.8351254,0.26284349 l 0,300.96057651 505.2712054,0 0,-138.41099 -197.58184,0 -12.84588,50.93668 -73.18479,6.85757 -44.57676,-66.10822 z"
     id="path3848" />
  <g
     id="g3843"
     transform="matrix(0.34201248,0,0,0.34201248,148.58138,62.497587)">
    <path
       style="fill:#82b716;stroke:none;stroke-width:1px;stroke-linecap:butt;stroke-linejoin:miter;stroke-opacity:1;fill-opacity:1"
       d="m 234.89606,93.242533 -59.33573,-94.814815 327.87575,0 0,137.586622 -197.58184,0 -1.83512,-37.266431 -28.13859,-17.739546 -28.7503,1.835126 z"
       id="path3868"
       transform="matrix(2.9238699,0,0,2.9238699,-434.43263,-182.73481)" />
    <path
       transform="matrix(3.6817385,0,0,3.6817385,-709.05043,-650.64496)"
       d="m 362.74313,246.21266 a 89.615295,89.615295 0 1 1 -179.23059,0 89.615295,89.615295 0 1 1 179.23059,0 z"
       id="path3067-0"
       style="fill:#dfdfdf;fill-opacity:1;stroke:none" />
    <path
       transform="matrix(1.0273038,0,0,1.0273038,16.638164,4.2882232)"
       d="m 362.74313,246.21266 c 0,49.49316 -40.12213,89.6153 -89.61529,89.6153 -49.49316,0 -89.6153,-40.12214 -89.6153,-89.6153 0,-49.49316 40.12214,-89.61529 89.6153,-89.61529 49.49316,0 89.61529,40.12213 89.61529,89.61529 z"
       id="path3067"
       style="fill:#006532;fill-opacity:1;stroke:none" />
    <path
       id="path3841"
       d="m 280,510.04513 c -22.66488,-1.65727 -48.13702,-6.9458 -68.8384,-14.29224 -14.38344,-5.10435 -41.77591,-18.68671 -53.44301,-26.49933 C 95.05414,427.29168 54.693408,363.73636 44.518882,291 35.309637,225.16431 53.097103,155.8973 92.738302,103.22649 104.82671,87.164765 134.72972,57 138.56367,57 c 0.66183,0 4.10738,5.0625 7.65676,11.25 8.88393,15.486989 20.99441,36.4726 27.26727,47.25 2.88109,4.95 5.76478,10.01057 6.40821,11.24571 1.0278,1.97299 0.45143,3.49097 -4.74617,12.5 -3.25382,5.63986 -7.15974,12.50429 -8.67982,15.25429 -1.52009,2.75 -4.88353,8.6 -7.47431,13 -5.64276,9.58325 -10.13313,17.30978 -33.99799,58.5 l -18.25052,31.5 1.93873,3.5 c 1.0663,1.925 10.28086,17.9 20.47678,35.5 10.19593,17.6 27.65577,47.75 38.79966,67 11.14388,19.25 20.59822,35.45 21.00963,36 0.41142,0.55 2.67071,4.6 5.02065,9 2.34995,4.4 5.36086,9.4625 6.69093,11.25 l 2.4183,3.25 94.93492,0 94.93492,0 2.42174,-3.75 c 1.33195,-2.0625 9.82301,-16.575 18.86903,-32.25 38.81809,-67.26427 53.06269,-91.5457 54.11579,-92.24615 0.617,-0.41039 19.44427,-0.72889 41.83838,-0.7078 l 40.71656,0.0384 -0.56793,3.2078 C 542.6312,340.97582 526.40568,378.04755 500.15998,412 c -8.64145,11.17891 -29.37011,32.33208 -40.65998,41.49267 -24.97316,20.2632 -57.56069,37.565 -87.51131,46.46265 C 344.65077,508.0768 308.02373,512.09425 280,510.04513 z"
       style="fill:#82b716;fill-opacity:1" />
    <path
       id="path3065"
       d="m 464.04511,215.72301 c 0,0 -6.79392,-12.4279 -49.04683,-85.72301 C 404.3767,111.575 394.77846,95.4875 393.66885,94.25 L 391.65137,92 321.44813,92 c -54.94845,0 -70.4263,-0.271618 -71.22976,-1.25 -1.12116,-1.365227 -38.62042,-65.652489 -40.67721,-69.735396 -0.69671,-1.383032 -1.06648,-3.075648 -0.8217,-3.761368 C 209.27213,15.704972 227.81489,9.8349331 242.5,6.5594074 257.71372,3.1659749 267.65557,2.0226051 288,1.3266492 332.75437,-0.2043383 366.75454,6.5573401 407,24.9924 c 52.65922,24.121378 97.46764,68.490025 122.47827,121.2762 10.22358,21.57739 19.56379,51.11349 19.83983,63.64465 l 0.12783,5.80302 -85.40082,0.007 z"
       style="fill:#006532;fill-opacity:1" />
  </g>
</svg>
