<?xml version="1.0" encoding="UTF-8" standalone="no"?>
<!-- Created with Inkscape (http://www.inkscape.org/) -->

<svg
   xmlns:dc="http://purl.org/dc/elements/1.1/"
   xmlns:cc="http://creativecommons.org/ns#"
   xmlns:rdf="http://www.w3.org/1999/02/22-rdf-syntax-ns#"
   xmlns:svg="http://www.w3.org/2000/svg"
   xmlns="http://www.w3.org/2000/svg"
   xmlns:sodipodi="http://sodipodi.sourceforge.net/DTD/sodipodi-0.dtd"
   xmlns:inkscape="http://www.inkscape.org/namespaces/inkscape"
   width="500"
   height="300"
   viewBox="0 0 1560.9712 937.45837"
   id="svg2"
   version="1.1"
   inkscape:version="0.91 r13725"
   sodipodi:docname="gulp-bower.svg"
   inkscape:export-filename="/home/timroes/design/blog-banners/gulp-bower.png"
   inkscape:export-xdpi="14.375034"
   inkscape:export-ydpi="14.375034">
  <defs
     id="defs4" />
  <sodipodi:namedview
     id="base"
     pagecolor="#ffffff"
     bordercolor="#666666"
     borderopacity="1.0"
     inkscape:pageopacity="0.0"
     inkscape:pageshadow="2"
     inkscape:zoom="0.49917411"
     inkscape:cx="1030.2675"
     inkscape:cy="553.55023"
     inkscape:document-units="px"
     inkscape:current-layer="layer1"
     showgrid="false"
     inkscape:window-width="1920"
     inkscape:window-height="1052"
     inkscape:window-x="1920"
     inkscape:window-y="28"
     inkscape:window-maximized="0"
     fit-margin-top="0"
     fit-margin-left="0"
     fit-margin-right="0"
     fit-margin-bottom="0" />
  <metadata
     id="metadata7">
    <rdf:RDF>
      <cc:Work
         rdf:about="">
        <dc:format>image/svg+xml</dc:format>
        <dc:type
           rdf:resource="http://purl.org/dc/dcmitype/StillImage" />
        <dc:title></dc:title>
      </cc:Work>
    </rdf:RDF>
  </metadata>
  <g
     inkscape:label="Layer 1"
     inkscape:groupmode="layer"
     id="layer1"
     transform="translate(380.07715,-43.483833)">
    <rect
       style="fill:#cf4646;fill-opacity:1;stroke:none"
       id="rect2985"
       width="1560.9712"
       height="937.45837"
       x="-380.07715"
       y="43.483833"
       inkscape:export-filename="/home/timroes/design/blog-banners/gulp-bower.png"
       inkscape:export-xdpi="28.828207"
       inkscape:export-ydpi="28.828207" />
    <g
       id="g3762"
       transform="matrix(0.90056277,0.434726,-0.434726,0.90056277,253.35878,-103.41512)">
      <path
         sodipodi:nodetypes="cczccccccccccccsc"
         inkscape:connector-curvature="0"
         id="path4227"
         d="m 94.44964,552.85098 c -7.34688,-0.78177 -14.73648,-2.52485 -20.57998,-6.54588 -5.81244,-14.32159 39.28277,-15.60603 72.73825,-16.71433 33.45549,-1.10831 54.5371,-0.39239 81.8051,-0.51698 3.75138,-21.76819 10.76939,-44.23457 15.73619,-64.32001 18.1555,-17.19963 38.11635,-45.88425 54.77652,-59.53006 6.80027,-5.37801 11.2936,-13.13117 18.53577,-17.54767 7.10041,-4.90876 12.67219,7.70345 19.72418,8.93201 -7.73037,4.78752 -9.68927,14.50428 -17.9758,19.12017 -17.07294,20.53133 -39.17123,40.41412 -51.93265,60.49052 -3.51292,10.86034 -9.88925,38.25617 -12.45305,53.39545 24.08976,3.15548 75.58125,0.89139 93.72087,12.07887 -86.73719,39.69016 -193.34405,25.26207 -254.0954,11.15791 z m 152.47357,-5.02413 c -9.59077,2.6133 -21.17124,-1.64636 -29.16198,-0.15875 2.26755,9.47482 16.13185,6.91469 26.67152,5.88303 8.58867,-0.8407 11.53367,-12.85741 2.49046,-5.72428 z"
         style="fill:#ffffff;fill-opacity:1;stroke:none" />
      <path
         sodipodi:nodetypes="ccccc"
         inkscape:connector-curvature="0"
         id="path4231"
         d="M 103.91788,874.10753 C 80.15808,704.58494 69.45526,563.4054 69.45526,563.4054 c 0,0 115.23441,43.61676 276.23949,3.23087 -4.30783,117.9268 -26.46688,230.55573 -36.07806,309.08669 -92.77141,19.81253 -118.00798,23.42631 -205.69881,-1.61543 z"
         style="fill:#ffffff;fill-opacity:1;stroke:none" />
      <path
         sodipodi:nodetypes="ccccc"
         inkscape:connector-curvature="0"
         id="path4229"
         d="m 103.36756,888.08188 c 15.62321,23.66725 29.09715,26.66774 29.09715,127.90322 59.23264,33.3856 104.51045,35.8297 154.54335,-0.5385 0,-103.84917 9.41462,-107.73967 21.55071,-124.93866 -79.15499,16.94192 -120.42899,18.61221 -205.19121,-2.42606 z"
         style="fill:#ffffff;fill-opacity:1;stroke:none" />
      <g
         style="fill:#cf4646;fill-opacity:1"
         transform="matrix(0.92411349,0,0,0.92411349,91.89692,650.16606)"
         id="g3851">
        <g
           style="fill:#cf4646;fill-opacity:1"
           id="g3823">
          <path
             style="fill:#cf4646;fill-opacity:1;stroke:#ffffff;stroke-miterlimit:10"
             inkscape:connector-curvature="0"
             stroke-miterlimit="10"
             d="m 67.533,79.118 c -0.176,0.26 -0.494,1.079 -0.955,2.456 -0.461,1.379 -1.021,3.107 -1.68,5.188 -0.658,2.079 -1.373,4.405 -2.14,6.979 -0.769,2.573 -1.559,5.199 -2.371,7.877 -0.812,2.68 -1.591,5.304 -2.337,7.878 -0.748,2.573 -1.416,4.899 -2.008,6.98 -0.593,2.078 -1.086,3.821 -1.482,5.226 -0.395,1.403 -0.637,2.234 -0.724,2.496 -0.22,0.831 -0.571,1.754 -1.053,2.769 -0.484,1.013 -1.054,1.976 -1.712,2.886 -0.659,0.909 -1.382,1.663 -2.173,2.262 -0.791,0.597 -1.603,0.896 -2.436,0.896 -1.406,0 -2.426,-0.468 -3.062,-1.403 -0.638,-0.937 -0.955,-2.651 -0.955,-5.147 0,-0.365 0,-0.729 0,-1.093 0,-0.364 0.021,-0.754 0.066,-1.169 0.043,-0.832 0.373,-2.394 0.988,-4.681 0.614,-2.288 1.35,-4.874 2.206,-7.76 0.856,-2.886 1.778,-5.875 2.766,-8.969 0.988,-3.094 1.876,-5.862 2.667,-8.308 -2.328,2.602 -4.851,5.188 -7.572,7.761 -2.723,2.574 -5.51,4.888 -8.363,6.941 -2.854,2.056 -5.729,3.732 -8.626,5.031 -2.897,1.298 -5.686,1.95 -8.363,1.95 -3.073,0 -5.718,-0.677 -7.935,-2.028 C 8.062,112.783 6.23,111.016 4.781,108.832 3.332,106.648 2.256,104.179 1.554,101.423 0.851,98.667 0.5,95.912 0.5,93.156 c 0,-0.362 0,-0.702 0,-1.015 0,-0.311 0.021,-0.623 0.066,-0.935 C 0.829,86.214 1.542,81.093 2.706,75.841 3.869,70.589 5.394,65.363 7.283,60.164 9.17,54.966 11.354,49.882 13.835,44.916 16.314,39.951 19.014,35.258 21.934,30.838 24.853,26.42 27.959,22.351 31.251,18.632 34.543,14.915 37.923,11.717 41.392,9.039 44.859,6.362 48.36,4.269 51.894,2.761 55.427,1.254 58.929,0.5 62.396,0.5 c 3.994,0 7.858,1.092 11.589,3.275 3.73,2.184 7.22,5.721 10.47,10.607 0.745,1.092 1.218,2.197 1.415,3.314 0.197,1.119 0.296,2.171 0.296,3.159 0,2.339 -0.56,4.187 -1.679,5.538 -1.119,1.353 -2.447,2.028 -3.984,2.028 -1.405,0 -2.71,-0.741 -3.918,-2.223 -1.208,-1.482 -2.558,-3.6 -4.05,-6.356 -1.405,-2.496 -2.953,-4.302 -4.642,-5.42 -1.69,-1.118 -3.523,-1.677 -5.499,-1.677 -3.073,0 -6.354,1.275 -9.844,3.822 -3.49,2.548 -6.947,5.916 -10.371,10.101 -3.425,4.186 -6.706,8.968 -9.845,14.35 -3.138,5.382 -5.916,10.893 -8.33,16.535 -2.415,5.642 -4.335,11.206 -5.761,16.689 -1.427,5.486 -2.14,10.412 -2.14,14.781 0,1.455 0.099,2.951 0.296,4.483 0.198,1.534 0.57,2.926 1.12,4.173 0.548,1.248 1.294,2.275 2.239,3.08 0.944,0.809 2.14,1.209 3.589,1.209 1.624,0 3.468,-0.545 5.531,-1.638 2.062,-1.091 4.203,-2.521 6.42,-4.289 2.216,-1.768 4.444,-3.769 6.684,-6.006 2.239,-2.234 4.323,-4.496 6.255,-6.785 1.931,-2.287 3.644,-4.485 5.136,-6.591 1.492,-2.105 2.611,-3.938 3.358,-5.498 l 6.124,-18.329 c 0.746,-1.975 1.722,-3.378 2.93,-4.211 1.207,-0.831 2.447,-1.248 3.721,-1.248 0.614,0 1.228,0.105 1.843,0.312 0.614,0.208 1.163,0.533 1.646,0.975 0.483,0.442 0.866,1.014 1.152,1.716 0.285,0.702 0.428,1.521 0.428,2.456 0,2.496 -0.22,4.836 -0.658,7.02 -0.439,2.186 -0.999,4.316 -1.679,6.396 -0.681,2.079 -1.438,4.173 -2.271,6.278 -0.833,2.106 -1.645,4.304 -2.434,6.592 z"
             id="path3825" />
          <path
             style="fill:#cf4646;fill-opacity:1;stroke:#ffffff;stroke-miterlimit:10"
             inkscape:connector-curvature="0"
             stroke-miterlimit="10"
             d="m 150.565,94.405 c -1.933,2.6 -4.182,5.134 -6.749,7.604 -2.568,2.47 -5.214,4.667 -7.935,6.591 -2.723,1.923 -5.4,3.47 -8.033,4.64 -2.634,1.17 -5.004,1.755 -7.111,1.755 -2.107,0 -3.819,-0.702 -5.137,-2.105 -1.316,-1.403 -1.975,-3.795 -1.975,-7.176 0,-2.392 0.351,-5.174 1.053,-8.346 -1.142,2.029 -2.567,4.083 -4.279,6.162 -1.713,2.08 -3.666,3.978 -5.861,5.694 -2.195,1.716 -4.653,3.106 -7.375,4.171 -2.722,1.065 -5.686,1.6 -8.889,1.6 -1.448,0 -2.843,-0.183 -4.182,-0.547 -1.34,-0.363 -2.513,-0.986 -3.522,-1.871 -1.011,-0.883 -1.822,-2.065 -2.437,-3.549 -0.615,-1.48 -0.922,-3.34 -0.922,-5.576 0,-0.052 0.088,-0.845 0.264,-2.379 0.174,-1.533 0.734,-3.951 1.679,-7.254 0.943,-3.3 2.404,-7.577 4.379,-12.829 1.976,-5.252 4.763,-11.62 8.362,-19.107 0.922,-1.976 1.986,-3.393 3.193,-4.251 1.208,-0.858 2.513,-1.287 3.918,-1.287 0.615,0 1.251,0.092 1.91,0.272 0.659,0.184 1.272,0.468 1.844,0.858 0.57,0.39 1.031,0.885 1.383,1.481 0.352,0.598 0.527,1.286 0.527,2.067 0,0.52 -0.066,1.015 -0.198,1.48 -0.22,0.887 -0.691,2.042 -1.416,3.471 -0.725,1.431 -1.569,3.07 -2.534,4.915 -0.967,1.846 -1.987,3.835 -3.062,5.967 -1.076,2.132 -2.074,4.341 -2.996,6.629 -0.922,2.289 -1.712,4.615 -2.37,6.98 -0.659,2.366 -1.032,4.667 -1.119,6.901 0,0.937 0.219,1.795 0.658,2.574 0.438,0.78 1.162,1.171 2.173,1.171 2.853,0 5.574,-0.937 8.165,-2.809 2.59,-1.871 4.981,-4.198 7.178,-6.98 2.194,-2.78 4.181,-5.771 5.958,-8.969 1.778,-3.198 3.261,-6.122 4.445,-8.774 0.834,-1.768 1.568,-3.666 2.206,-5.694 0.636,-2.027 1.327,-3.898 2.074,-5.615 0.746,-1.716 1.602,-3.145 2.567,-4.289 0.965,-1.144 2.173,-1.716 3.622,-1.716 1.58,0 2.83,0.599 3.753,1.793 0.922,1.197 1.382,2.626 1.382,4.29 0,0.937 -0.295,2.223 -0.888,3.86 -0.594,1.639 -1.34,3.511 -2.24,5.616 -0.899,2.105 -1.876,4.354 -2.929,6.746 -1.054,2.393 -2.032,4.823 -2.93,7.292 -0.901,2.471 -1.646,4.889 -2.239,7.255 -0.593,2.365 -0.889,4.562 -0.889,6.589 0,1.873 0.965,2.808 2.896,2.808 1.36,0 3.051,-0.468 5.069,-1.402 2.021,-0.937 4.138,-2.25 6.355,-3.939 2.216,-1.689 4.433,-3.679 6.65,-5.966 2.216,-2.288 4.182,-4.758 5.893,-7.41 l 0.661,10.608 z"
             id="path3827" />
          <path
             style="fill:#cf4646;fill-opacity:1;stroke:#ffffff;stroke-miterlimit:10"
             inkscape:connector-curvature="0"
             stroke-miterlimit="10"
             d="m 152.607,90.503 c -0.483,1.197 -0.955,2.588 -1.416,4.174 -0.462,1.586 -0.691,3.002 -0.691,4.25 0,0.779 0.132,1.403 0.395,1.872 0.264,0.468 0.769,0.702 1.516,0.702 0.921,0 2.073,-0.324 3.456,-0.975 1.382,-0.65 2.874,-1.509 4.478,-2.574 1.603,-1.064 3.271,-2.287 5.004,-3.666 1.733,-1.377 3.457,-2.808 5.169,-4.289 1.713,-1.483 3.347,-2.964 4.906,-4.445 1.558,-1.483 2.952,-2.848 4.182,-4.095 0.351,-0.364 0.767,-0.625 1.251,-0.78 0.481,-0.156 0.899,-0.234 1.251,-0.234 0.877,0 1.603,0.364 2.173,1.093 0.569,0.728 0.855,1.688 0.855,2.886 0,1.091 -0.308,2.313 -0.921,3.665 -0.615,1.353 -1.69,2.679 -3.228,3.977 -2.81,3.069 -5.64,5.98 -8.494,8.736 -2.854,2.756 -5.695,5.186 -8.526,7.291 -2.832,2.107 -5.642,3.783 -8.429,5.032 -2.788,1.247 -5.498,1.871 -8.133,1.871 -1.8,0 -3.304,-0.286 -4.51,-0.857 -1.209,-0.573 -2.173,-1.353 -2.897,-2.339 -0.725,-0.989 -1.241,-2.158 -1.548,-3.511 -0.308,-1.352 -0.46,-2.78 -0.46,-4.289 0,-2.548 0.318,-5.16 0.954,-7.84 0.636,-2.676 1.393,-5.134 2.271,-7.369 1.536,-4.057 3.096,-8.084 4.676,-12.089 1.579,-4.003 3.028,-7.669 4.347,-10.998 l 19.95,-50.305 c 0.79,-2.028 1.854,-3.458 3.194,-4.29 1.339,-0.831 2.688,-1.248 4.05,-1.248 1.359,0 2.601,0.442 3.721,1.326 1.118,0.885 1.679,2.314 1.679,4.29 0,0.936 -0.188,1.924 -0.561,2.963 -0.373,1.042 -0.845,2.158 -1.415,3.354 -1.098,2.444 -2.403,5.434 -3.918,8.968 -1.515,3.537 -3.14,7.384 -4.874,11.543 -1.733,4.161 -3.512,8.489 -5.332,12.986 -1.823,4.497 -3.601,8.878 -5.335,13.142 -1.733,4.265 -3.357,8.306 -4.872,12.128 -1.515,3.822 -2.821,7.137 -3.918,9.944 z"
             id="path3829" />
          <path
             style="fill:#cf4646;fill-opacity:1;stroke:#ffffff;stroke-miterlimit:10"
             inkscape:connector-curvature="0"
             stroke-miterlimit="10"
             d="m 245.912,76.387 c 0.615,-0.416 1.187,-0.753 1.713,-1.015 0.526,-0.258 1.031,-0.39 1.515,-0.39 0.964,0 1.689,0.43 2.173,1.287 0.482,0.858 0.724,1.911 0.724,3.159 0,1.354 -0.295,2.729 -0.889,4.134 -0.592,1.403 -1.481,2.573 -2.667,3.509 -4.698,4.16 -8.89,7.955 -12.575,11.388 -3.688,3.431 -7.168,6.383 -10.438,8.853 -3.27,2.47 -6.463,4.381 -9.58,5.732 -3.117,1.351 -6.453,2.027 -10.01,2.027 -3.336,0 -5.915,-0.729 -7.736,-2.184 -1.822,-1.455 -2.733,-3.457 -2.733,-6.006 0,-0.207 0,-0.401 0,-0.585 0,-0.181 0.021,-0.402 0.066,-0.663 0.174,-1.559 0.856,-3.354 2.041,-5.381 1.186,-2.028 2.612,-4.134 4.28,-6.317 1.668,-2.183 3.445,-4.394 5.334,-6.63 1.887,-2.234 3.631,-4.354 5.235,-6.357 1.602,-2 2.93,-3.833 3.982,-5.498 1.055,-1.663 1.581,-3.014 1.581,-4.055 0,-0.624 -0.221,-1.117 -0.658,-1.482 -0.438,-0.363 -1.164,-0.545 -2.173,-0.545 -1.757,0 -3.566,0.454 -5.432,1.365 -1.867,0.908 -3.711,2.131 -5.532,3.664 -1.822,1.535 -3.601,3.29 -5.334,5.265 -1.734,1.977 -3.357,4.03 -4.873,6.162 -1.515,2.133 -2.896,4.276 -4.148,6.435 -1.251,2.157 -2.316,4.146 -3.193,5.966 -0.263,0.572 -0.637,1.379 -1.12,2.418 -0.483,1.041 -1.01,2.211 -1.579,3.511 -0.572,1.299 -1.175,2.64 -1.812,4.015 -0.637,1.379 -1.218,2.68 -1.744,3.9 -0.527,1.222 -1,2.312 -1.416,3.276 -0.418,0.961 -0.715,1.624 -0.889,1.988 -0.221,0.468 -0.583,1.351 -1.087,2.651 -0.505,1.3 -1.086,2.82 -1.746,4.563 -0.657,1.741 -1.35,3.574 -2.073,5.498 -0.723,1.924 -1.404,3.744 -2.041,5.46 -0.637,1.715 -1.197,3.223 -1.679,4.523 -0.483,1.299 -0.791,2.184 -0.923,2.651 -0.438,1.352 -0.955,2.625 -1.547,3.822 -0.593,1.195 -1.273,2.248 -2.041,3.159 -0.768,0.908 -1.647,1.637 -2.634,2.184 -0.989,0.546 -2.097,0.818 -3.325,0.818 -1.581,0 -2.886,-0.378 -3.919,-1.131 -1.03,-0.754 -1.547,-2.197 -1.547,-4.329 0,-1.04 0.131,-2.105 0.395,-3.196 0.265,-1.093 0.594,-2.173 0.988,-3.238 0.395,-1.066 0.802,-2.105 1.218,-3.118 0.418,-1.015 0.803,-1.989 1.152,-2.926 2.371,-5.2 4.785,-10.412 7.243,-15.638 2.459,-5.226 4.818,-10.397 7.078,-15.521 2.261,-5.121 4.357,-10.152 6.29,-15.092 1.931,-4.939 3.533,-9.671 4.806,-14.194 0.351,-0.937 0.834,-2.262 1.449,-3.979 0.614,-1.715 1.316,-3.404 2.107,-5.069 0.79,-1.663 1.679,-3.106 2.666,-4.327 0.988,-1.222 2.052,-1.834 3.193,-1.834 1.757,0 3.029,0.402 3.819,1.209 0.791,0.807 1.186,1.988 1.186,3.549 0,0.312 -0.044,0.807 -0.131,1.481 -0.089,0.676 -0.198,1.393 -0.329,2.146 -0.132,0.754 -0.275,1.469 -0.429,2.146 -0.154,0.676 -0.297,1.169 -0.429,1.48 1.624,-1.768 3.38,-3.522 5.269,-5.264 1.887,-1.741 3.841,-3.316 5.861,-4.719 2.018,-1.403 4.082,-2.547 6.189,-3.433 2.107,-0.883 4.214,-1.325 6.321,-1.325 1.447,0 2.886,0.208 4.312,0.624 1.426,0.416 2.7,1.027 3.819,1.832 1.12,0.808 2.03,1.821 2.732,3.042 0.701,1.223 1.053,2.64 1.053,4.251 0,2.133 -0.537,4.407 -1.612,6.825 -1.076,2.417 -2.426,4.848 -4.049,7.291 -1.626,2.445 -3.382,4.823 -5.269,7.137 -1.889,2.314 -3.654,4.42 -5.301,6.317 -1.646,1.898 -3.028,3.51 -4.148,4.835 -1.119,1.327 -1.702,2.224 -1.745,2.691 0,0.625 0.198,1.131 0.593,1.521 0.395,0.39 1.054,0.585 1.976,0.585 0.746,0 1.844,-0.417 3.293,-1.249 1.447,-0.831 3.478,-2.274 6.09,-4.327 2.61,-2.054 5.927,-4.81 9.943,-8.269 4.019,-3.451 8.968,-7.807 14.85,-13.059 z"
             id="path3831" />
        </g>
        <g
           style="fill:#cf4646;fill-opacity:1"
           id="g3833" />
        <g
           style="fill:#cf4646;fill-opacity:1"
           id="g3835" />
        <g
           style="fill:#cf4646;fill-opacity:1"
           id="g3837" />
        <g
           style="fill:#cf4646;fill-opacity:1"
           id="g3839" />
        <g
           style="fill:#cf4646;fill-opacity:1"
           id="g3841" />
        <g
           style="fill:#cf4646;fill-opacity:1"
           id="g3843" />
      </g>
    </g>
    <g
       id="g4012"
       transform="translate(397.09597,231.75973)">
      <g
         id="g4084"
         transform="matrix(0.88043813,-0.47416106,0.47416106,0.88043813,-2.8254377,29.79775)">
        <path
           sodipodi:nodetypes="ccccccccccsscscsccc"
           d="m 427.682,260.289 c 5.155,18.918 -26.24,34.538 -53.612,27.426 -2.784,14.38 -37.89,23.661 -60.417,5.979 -4.298,14.575 -39.689,11.358 -53.661,-0.007 7.058,10.73 25.153,41.815 26.847,50.478 2.298,11.767 -2.864,26.542 -13.387,27.104 -0.414,15.259 -19.373,28.047 -40.818,23.511 -11.136,16.497 -31.567,12.771 -42.702,6.585 -8.66,9.485 -28.449,1.576 -32.728,-7.564 -2.895,-6.181 -11.71,-30.461 -14.583,-38.271 -3.427,11.391 -4.36839,13.00282 -21.33739,13.00282 -38.856001,0 -123.7282296,-93.19646 -120.44794239,-154.27985 C 1.5861786,200.27744 2.0296233,142.61675 -8.4500986,133.49597 -12.345797,131.7111 -42.044134,112.2144 -47.966504,114.2177 -102.55584,132.68312 -117.45505,77.307758 -10.755825,51.355781 1.7789595,9.6473174 12.113285,-13.236633 41.919432,-22.190365 c 64.906678,-19.49789 202.842878,-9.98062 221.458488,166.211415 39.00263,5.20253 119.89705,25.51518 190.31108,54.58495 12.338,11.856 17.966,58.642 -26.007,61.683 z"
           id="outline"
           inkscape:connector-curvature="0"
           style="fill:#543729" />
        <path
           d="m 251.083,278.09 c 0.004,0.025 0.015,0.059 0.018,0.084 -2.225,-4.788 -4.588,-10.604 -7.41,-18.206 10.988,15.994 45.426,7.745 43.62,-6.587 16.856,12.683 51.553,-2.113 43.665,-19.897 16.885,7.868 36.157,-7.963 31.835,-14.861 28.787,5.552 56.374,11.086 65.034,13.302 -5.753,9.38 -18.855,16.004 -38.605,11.401 10.672,14.538 -10.048,31.979 -38.908,22.373 6.353,14.272 -19.343,27.121 -48.548,12.245 0.371,14.278 -36.231,15.922 -50.701,0.146 z m 57.105,-72.167 c 33.411,2.565 88.663,7.547 122.869,12.334 -2.161,-11.132 -8.064,-14.312 -26.633,-19.3 -19.971,2.13 -70.638,7.107 -96.236,6.966 z"
           id="wingtip"
           inkscape:connector-curvature="0"
           style="fill:#2baf2b" />
        <path
           d="m 287.311,253.381 c 16.856,12.683 51.553,-2.113 43.665,-19.897 16.885,7.868 36.157,-7.963 31.835,-14.861 -34.034,-6.562 -69.747,-13.148 -77.848,-14.299 4.914,0.261 13.059,0.819 23.225,1.6 25.599,0.141 76.266,-4.836 96.236,-6.966 -32.336,-8.199 -98.356,-20.164 -143.95,-23.112 -2.113,3.088 -5.997,8.325 -12.762,13.89 -19.948,42.207 -56.091,70.262 -96.081,70.262 -11.654,0 -24.693,-1.966 -39.308,-6.638 -9.114,9.764 -47.973,17.163 -79.503,1.687 25.01,58.562 83.01,97.654 147.211,97.654 54.07,0 78.046,-55.214 72.799,-69.823 -1.273,-3.547 -6.318,-15.308 -9.141,-22.909 10.99,15.993 45.427,7.744 43.622,-6.588 z"
           id="body"
           inkscape:connector-curvature="0"
           style="fill:#ffcc2f" />
        <path
           d="m 3.2328652,126.04196 c -4.774,-2.597 -21.2720002,-12.597 -36.9930002,-16.355 0.248,-1.741 0.435,-3.497 0.551,-5.263 10.314,2.47 29.7590002,10.804 40.9020002,-0.681 -23.5090002,7.094 -35.2470002,-6.320996 -52.5260002,-6.320996 -10.296,0 -24.988,2.875996 -36.569,7.422996 9.315,-8.604996 39.861,-34.574996 77.6810002,-34.664996 8.444,10.237 17.5709998,32.411996 6.954,55.861996 z"
           id="beak"
           inkscape:connector-curvature="0"
           style="fill:#cecece" />
        <path
           sodipodi:nodetypes="cscccsscc"
           d="m 110.23904,255.06695 c -19.735857,9.79285 -58.921755,43.71454 -77.714404,0.66367 -18.093315,-41.44881 4.094706,-53.66027 -15.854294,-95.86627 -6.6910243,-14.5566 -3.528881,-18.60101 -1.554,-28.991 10.98,-17.476 22.889,-56.137995 -7.2690001,-86.701995 4.6390001,-14.904 27.2190001,-54.248 77.2060001,-54.248 87.235998,0 159.532998,72.997 159.532998,170.824995 0,23.158 21.78274,0.49627 13.43274,20.04527 -55.42631,104.23846 -132.69171,94.27903 -147.78004,74.27333 z"
           id="head"
           inkscape:connector-curvature="0"
           style="fill:#ef5734" />
        <g
           transform="translate(-71.691949,-23.043841)"
           id="g4079">
          <path
             style="fill:#ffcc2f"
             inkscape:connector-curvature="0"
             id="eye_rim"
             d="m 138.496,104.407 c 0,22.252 18.039,40.293 40.292,40.293 22.253,0 40.294,-18.041 40.294,-40.293 0,-22.253 -18.041,-40.293 -40.294,-40.293 -22.253,0 -40.292,18.04 -40.292,40.293 z" />
          <path
             style="fill:#543729"
             inkscape:connector-curvature="0"
             id="eye"
             d="m 154.664,104.407 c 0,13.322 10.802,24.123 24.123,24.123 13.324,0 24.124,-10.801 24.124,-24.123 0,-13.323 -10.799,-24.124 -24.124,-24.124 -13.321,0 -24.123,10.801 -24.123,24.124 z" />
          <ellipse
             style="fill:#ffffff"
             id="pupil_highlight"
             cx="178.787"
             cy="93.703003"
             rx="14.057"
             ry="8.7399998" />
        </g>
      </g>
    </g>
  </g>
</svg>
