<?xml version="1.0" encoding="UTF-8" standalone="no"?>
<!-- Created with Inkscape (http://www.inkscape.org/) -->

<svg
   xmlns:dc="http://purl.org/dc/elements/1.1/"
   xmlns:cc="http://creativecommons.org/ns#"
   xmlns:rdf="http://www.w3.org/1999/02/22-rdf-syntax-ns#"
   xmlns:svg="http://www.w3.org/2000/svg"
   xmlns="http://www.w3.org/2000/svg"
   xmlns:sodipodi="http://sodipodi.sourceforge.net/DTD/sodipodi-0.dtd"
   xmlns:inkscape="http://www.inkscape.org/namespaces/inkscape"
   width="500"
   height="300"
   id="svg2"
   version="1.1"
   inkscape:version="0.91 r13725"
   sodipodi:docname="kibana5.svg">
  <defs
     id="defs4" />
  <sodipodi:namedview
     id="base"
     pagecolor="#ffffff"
     bordercolor="#666666"
     borderopacity="1.0"
     inkscape:pageopacity="0.0"
     inkscape:pageshadow="2"
     inkscape:zoom="0.98994949"
     inkscape:cx="151.09083"
     inkscape:cy="-52.871901"
     inkscape:document-units="px"
     inkscape:current-layer="layer1"
     showgrid="false"
     units="px"
     fit-margin-top="0"
     fit-margin-left="0"
     fit-margin-right="0"
     fit-margin-bottom="0" />
  <metadata
     id="metadata7">
    <rdf:RDF>
      <cc:Work
         rdf:about="">
        <dc:format>image/svg+xml</dc:format>
        <dc:type
           rdf:resource="http://purl.org/dc/dcmitype/StillImage" />
        <dc:title></dc:title>
      </cc:Work>
    </rdf:RDF>
  </metadata>
  <g
     inkscape:label="Layer 1"
     inkscape:groupmode="layer"
     id="layer1"
     transform="translate(-2.0202997,-959.43319)">
    <rect
       style="opacity:1;fill:#e8488b;fill-opacity:1;stroke:none;stroke-width:3.94700003;stroke-linejoin:round;stroke-miterlimit:4;stroke-dasharray:none;stroke-dashoffset:0;stroke-opacity:1"
       id="rect4136"
       width="518.20825"
       height="311.12698"
       x="-7.0838261"
       y="953.86969" />
    <g
       id="g4253"
       transform="matrix(2.5995283,0,0,2.5995283,41.575995,1041.6377)">
      <g
         transform="translate(0,-13.509761)"
         id="text4159">
        <path
           d="m 53.3,50.5 0,-6.7 2.1,-0.2 4,7 4.1,0 -5,-8.8 4.8,-7.7 -4,0 -3.9,6.4 -2,0.2 0,-13.6 -3.6,0 0,23.4 c -0.1,0 3.5,0 3.5,0 z"
           class="st0"
           inkscape:connector-curvature="0"
           id="path4891"
           style="fill:#ffffff;fill-opacity:0.92530003" />
        <path
           d="m 66.3,50.5 3.6,0 0,-16.5 -3.6,0 c 0,0 0,16.5 0,16.5 z m 0,-19.3 3.6,0 0,-3.8 -3.6,0 0,3.8 z"
           class="st0"
           inkscape:connector-curvature="0"
           id="path4893"
           style="fill:#ffffff;fill-opacity:0.92530003" />
        <path
           d="m 82,33.7 c -1.9,0 -4.1,1 -4.1,1 l 0,-7.5 -3.6,0 0,23.4 c 0,0 4.3,0.4 6,0.4 5.9,0 8.1,-2 8.1,-8.9 0,-6.2 -1.9,-8.4 -6.4,-8.4 z m -1.7,14 c -0.7,0 -2.5,-0.1 -2.5,-0.1 l 0,-10 c 0,0 1.9,-0.7 3.7,-0.7 2.2,0 3.2,1.5 3.2,5.2 0,4 -0.7,5.6 -4.4,5.6 z"
           class="st0"
           inkscape:connector-curvature="0"
           id="path4895"
           style="fill:#ffffff;fill-opacity:0.92530003" />
        <path
           d="m 104.2,39.1 c 0,-3.8 -1.7,-5.5 -5.7,-5.5 -3,0 -6.6,0.9 -6.6,0.9 L 92,37 c 0,0 4,-0.3 6.2,-0.3 1.6,0 2.4,0.6 2.4,2.4 l 0,1.2 -4.3,0.4 c -3.5,0.3 -5.5,1.5 -5.5,5 0,3.4 1.7,5.3 4.9,5.3 2.7,0 5.3,-1.2 5.3,-1.2 1.2,1 2.4,1.2 4.4,1.2 l 0.1,-2.7 c -1,-0.1 -1.4,-0.5 -1.5,-1.5 l 0.2,-7.7 0,0 z m -3.6,3.7 0,4.4 c 0,0 -2.2,0.7 -4.1,0.7 -1.4,0 -2,-0.9 -2,-2.4 0,-1.5 0.8,-2.2 2.3,-2.3 l 3.8,-0.4 z"
           class="st0"
           inkscape:connector-curvature="0"
           id="path4897"
           style="fill:#ffffff;fill-opacity:0.92530003" />
        <path
           d="m 112.3,50.5 0,-12.8 c 0,0 1.8,-0.9 3.7,-0.9 2.5,0 2.9,1.6 2.9,4.9 l 0,8.8 3.6,0 0,-8.9 c 0,-5.4 -1.1,-8 -5.7,-8 -2.1,0 -4.6,1.4 -4.6,1.4 l 0,-1 -3.6,0 0,16.5 c 0.1,0 3.7,0 3.7,0 z"
           class="st0"
           inkscape:connector-curvature="0"
           id="path4899"
           style="fill:#ffffff;fill-opacity:0.92530003" />
        <path
           d="m 138.9,39.1 c 0,-3.8 -1.7,-5.5 -5.7,-5.5 -3,0 -6.6,0.9 -6.6,0.9 l 0.1,2.5 c 0,0 4,-0.3 6.2,-0.3 1.6,0 2.4,0.6 2.4,2.4 l 0,1.2 -4.3,0.4 c -3.5,0.3 -5.5,1.5 -5.5,5 0,3.4 1.7,5.3 4.9,5.3 2.7,0 5.3,-1.2 5.3,-1.2 1.2,1 2.4,1.2 4.4,1.2 l 0.1,-2.7 c -1,-0.1 -1.4,-0.5 -1.5,-1.5 l 0.2,-7.7 0,0 z m -3.6,3.7 0,4.4 c 0,0 -2.2,0.7 -4.1,0.7 -1.4,0 -2,-0.9 -2,-2.4 0,-1.5 0.8,-2.2 2.3,-2.3 l 3.8,-0.4 z"
           class="st0"
           inkscape:connector-curvature="0"
           id="path4901"
           style="fill:#ffffff;fill-opacity:0.92530003" />
      </g>
      <g
         id="g4226">
        <path
           id="path4228"
           d="M 19.4,23.8 39.3,0 0,0 0,19.1 c 0.2,0 0.5,0 0.7,0 6.8,0 13.2,1.7 18.7,4.7 z"
           class="st1"
           inkscape:connector-curvature="0"
           style="opacity:0.7;fill:#ffffff" />
        <polygon
           id="polygon4230"
           points="0,47.3 19.4,23.8 0,47.3 "
           class="st1"
           style="opacity:0.7;fill:#ffffff" />
        <path
           id="path4232"
           d="m 24.5,27.1 c 0.2,0.2 0.4,0.3 0.5,0.4 -0.1,-0.1 -0.3,-0.2 -0.5,-0.4 z"
           class="st1"
           inkscape:connector-curvature="0"
           style="opacity:0.7;fill:#ffffff" />
        <path
           id="path4234"
           d="m 23,26 c 0.1,0.1 0.2,0.1 0.3,0.2 -0.1,0 -0.2,-0.1 -0.3,-0.2 z"
           class="st1"
           inkscape:connector-curvature="0"
           style="opacity:0.7;fill:#ffffff" />
        <path
           id="path4236"
           d="M 25.8,28.2 7,51 39.2,51 C 37.5,41.9 32.7,33.9 25.8,28.2 Z"
           class="st1"
           inkscape:connector-curvature="0"
           style="opacity:0.7;fill:#ffffff" />
        <path
           id="path4238"
           d="m 22.8,25.9 c -1.4,-1 -3.4,-2.1 -3.4,-2.1 1.2,0.7 2.4,1.4 3.6,2.2 -0.1,0 -0.1,0 -0.2,-0.1 z"
           class="st2"
           inkscape:connector-curvature="0"
           style="opacity:0.5;fill:#ffffff" />
        <path
           id="path4240"
           d="m 25.9,28.2 c 0,0 -0.3,-0.2 -0.8,-0.6 0.2,0.2 0.5,0.4 0.8,0.6 l 0,0 z"
           class="st2"
           inkscape:connector-curvature="0"
           style="opacity:0.5;fill:#ffffff" />
        <path
           id="path4242"
           d="m 23.3,26.3 c 0.4,0.3 0.8,0.6 1.2,0.9 -0.3,-0.3 -0.7,-0.6 -1.2,-0.9 z"
           class="st2"
           inkscape:connector-curvature="0"
           style="opacity:0.5;fill:#ffffff" />
        <path
           id="path4244"
           d="M 25.1,27.6 C 24.9,27.5 24.8,27.3 24.6,27.2 24.2,26.9 23.8,26.6 23.4,26.3 23.3,26.2 23.2,26.2 23.1,26.1 22,25.3 20.8,24.6 19.5,23.9 L 0,47.3 0,51 7,51 25.9,28.2 C 25.6,28 25.3,27.8 25.1,27.6 Z"
           class="st2"
           inkscape:connector-curvature="0"
           style="opacity:0.5;fill:#ffffff" />
        <path
           id="path4246"
           d="m 0.7,19.1 c -0.2,0 -0.5,0 -0.7,0 L 0,47.3 19.4,23.9 C 13.9,20.8 7.5,19.1 0.7,19.1 Z"
           class="st3"
           inkscape:connector-curvature="0"
           style="fill:#ffffff" />
      </g>
    </g>
    <g
       transform="matrix(0.96468549,-0.26340445,0.26340445,0.96468549,-0.19706935,5.5634848)"
       inkscape:transform-center-x="-46.467017"
       inkscape:transform-center-y="-29.294424"
       style="font-style:normal;font-variant:normal;font-weight:600;font-stretch:normal;font-size:60px;line-height:125%;font-family:Titillium;-inkscape-font-specification:'Titillium Semi-Bold';letter-spacing:0px;word-spacing:0px;fill:#ffffff;fill-opacity:1;stroke:none;stroke-width:1px;stroke-linecap:butt;stroke-linejoin:miter;stroke-opacity:1"
       id="text4870">
      <path
         d="m 114.66009,1131.0981 -1.08,21.06 4.2,0.9 c 0,0 3.78,-1.62 8.34,-1.62 4.26,0 6.72,1.74 6.72,6.66 0,4.74 -2.7,7.38 -7.32,7.38 -5.04,0 -12.12,-1.2 -12.12,-1.2 l -0.72,5.04 c 0,0 7.5,2.04 13.62,2.04 8.52,0 13.44,-4.92 13.44,-13.92 0,-8.46 -4.8,-11.88 -12.72,-11.88 -3.96,0 -8.04,1.86 -8.04,1.86 l 1.02,-10.44 18.36,0 0,-5.88 -23.7,0 z"
         style="font-style:normal;font-variant:normal;font-weight:600;font-stretch:normal;font-family:Titillium;-inkscape-font-specification:'Titillium Semi-Bold';fill:#ffffff;fill-opacity:1"
         id="path4875"
         inkscape:connector-curvature="0" />
    </g>
  </g>
  <style
     id="style4215"
     type="text/css">
	.st0{fill:#FFFFFF;fill-opacity:0.9253;}
	.st1{opacity:0.7;fill:#FFFFFF;}
	.st2{opacity:0.5;fill:#FFFFFF;}
	.st3{fill:#FFFFFF;}
</style>
</svg>
