<?xml version="1.0" encoding="UTF-8" standalone="no"?>
<svg
   xmlns:dc="http://purl.org/dc/elements/1.1/"
   xmlns:cc="http://creativecommons.org/ns#"
   xmlns:rdf="http://www.w3.org/1999/02/22-rdf-syntax-ns#"
   xmlns:svg="http://www.w3.org/2000/svg"
   xmlns="http://www.w3.org/2000/svg"
   xmlns:sodipodi="http://sodipodi.sourceforge.net/DTD/sodipodi-0.dtd"
   xmlns:inkscape="http://www.inkscape.org/namespaces/inkscape"
   width="500"
   height="300"
   viewBox="0 0 499.99998 300"
   id="svg2"
   version="1.1"
   inkscape:version="0.91 r13725"
   sodipodi:docname="optimize10k.svg">
  <defs
     id="defs4" />
  <sodipodi:namedview
     id="base"
     pagecolor="#ffffff"
     bordercolor="#666666"
     borderopacity="1.0"
     inkscape:pageopacity="0.0"
     inkscape:pageshadow="2"
     inkscape:zoom="1.4"
     inkscape:cx="233.13013"
     inkscape:cy="210.36086"
     inkscape:document-units="px"
     inkscape:current-layer="layer1"
     showgrid="false"
     units="px"
     inkscape:snap-page="true" />
  <g
     inkscape:label="Layer 1"
     inkscape:groupmode="layer"
     id="layer1"
     transform="translate(0,-752.36214)">
    <rect
       style="opacity:1;fill:#00695c;fill-opacity:1;stroke:none;stroke-width:4;stroke-linejoin:round;stroke-miterlimit:4;stroke-dasharray:none;stroke-dashoffset:0;stroke-opacity:1"
       id="rect4136"
       width="500"
       height="300"
       x="-1.5258789e-05"
       y="752.36212" />
    <path
       style="opacity:1;fill:#e8f5e9;fill-opacity:1;stroke:none;stroke-width:4;stroke-linejoin:round;stroke-miterlimit:4;stroke-dasharray:none;stroke-dashoffset:0;stroke-opacity:1"
       d="m 114.64284,799.14784 310.71429,-1.42857 c -1.32255,53.90846 -0.71429,110.91722 -0.71429,169.28571 0,22.16 -17.84,40.00002 -40,40.00002 l -270,0 c -22.160001,0 -40.000001,-17.84002 -40.000001,-40.00002 l 0,-127.85714 c 0,-22.16 17.840234,-39.89812 40.000001,-40 z"
       id="rect4146"
       inkscape:connector-curvature="0"
       sodipodi:nodetypes="sccsssss" />
    <g
       style="fill:#00695c;fill-opacity:1;stroke:none;stroke-width:1px;stroke-linecap:butt;stroke-linejoin:miter;stroke-opacity:1"
       id="text4138">
      <path
         d="m 152.07831,974.84711 -17.78655,0 0,-117.90764 -35.668732,13.10085 0,-16.06527 50.682112,-19.0297 2.77317,0 0,139.90176 z"
         style=""
         id="path4199" />
      <path
         d="m 291.02381,915.46297 q 0,17.11717 -3.06005,28.87924 -3.06005,11.66645 -8.79765,18.93407 -5.64197,7.172 -13.77024,10.32768 -8.03263,3.15568 -18.16906,3.15568 -10.04079,0 -18.16906,-3.15568 -8.12826,-3.15568 -13.86586,-10.32768 -5.7376,-7.26762 -8.89327,-18.93407 -3.15568,-11.76207 -3.15568,-28.87924 l 0,-21.22911 q 0,-17.11717 3.06005,-28.68799 3.15568,-11.57082 8.89328,-18.64719 5.73759,-7.07637 13.77023,-10.13643 8.12826,-3.06005 18.16906,-3.06005 10.13642,0 18.26469,3.06005 8.12826,3.06006 13.86586,10.13643 5.7376,7.07637 8.79765,18.64719 3.06005,11.57082 3.06005,28.68799 l 0,21.22911 z m -17.69093,-24.19354 q 0,-11.76207 -1.72128,-19.98596 -1.62565,-8.22389 -4.97258,-13.2921 -3.34693,-5.16384 -8.31952,-7.45888 -4.87696,-2.29504 -11.28394,-2.29504 -6.31136,0 -11.28394,2.29504 -4.87696,2.29504 -8.22389,7.45888 -3.25131,5.06821 -4.97259,13.2921 -1.72128,8.22389 -1.72128,19.98596 l 0,26.96671 q 0,11.66645 1.72128,20.08159 1.72128,8.31952 5.06821,13.67461 3.44256,5.35509 8.31952,7.84139 4.97259,2.48629 11.28394,2.48629 6.50261,0 11.37957,-2.48629 4.87696,-2.4863 8.12827,-7.84139 3.34693,-5.35509 4.97258,-13.67461 1.62565,-8.41514 1.62565,-20.08159 l 0,-26.96671 z"
         style=""
         id="path4201" />
      <path
         d="m 344.57472,926.93817 -11.09268,11.57082 0,36.33812 -17.69093,0 0,-146.88251 17.69093,0 0,88.83714 9.46703,-11.37957 32.22618,-34.04308 21.51599,0 -40.25881,43.22324 44.94451,60.24478 -20.75098,0 -36.05124,-47.90894 z"
         style=""
         id="path4203" />
    </g>
  </g>
</svg>
