<?xml version="1.0" encoding="UTF-8" standalone="no"?>
<!-- Created with Inkscape (http://www.inkscape.org/) -->

<svg
   xmlns:dc="http://purl.org/dc/elements/1.1/"
   xmlns:cc="http://creativecommons.org/ns#"
   xmlns:rdf="http://www.w3.org/1999/02/22-rdf-syntax-ns#"
   xmlns:svg="http://www.w3.org/2000/svg"
   xmlns="http://www.w3.org/2000/svg"
   xmlns:sodipodi="http://sodipodi.sourceforge.net/DTD/sodipodi-0.dtd"
   xmlns:inkscape="http://www.inkscape.org/namespaces/inkscape"
   width="500"
   height="300"
   viewBox="0 0 132.29167 79.374998"
   version="1.1"
   id="svg8"
   inkscape:version="0.92.1 r"
   sodipodi:docname="timelion.svg">
  <defs
     id="defs2">
    <clipPath
       clipPathUnits="userSpaceOnUse"
       id="clipPath8447">
      <path
         d="m 0,440.426 600,0 L 600,0 0,0 0,440.426 Z"
         id="path8449"
         inkscape:connector-curvature="0" />
    </clipPath>
  </defs>
  <sodipodi:namedview
     id="base"
     pagecolor="#ffffff"
     bordercolor="#666666"
     borderopacity="1.0"
     inkscape:pageopacity="0.0"
     inkscape:pageshadow="2"
     inkscape:zoom="1.4"
     inkscape:cx="236.10957"
     inkscape:cy="108.10105"
     inkscape:document-units="mm"
     inkscape:current-layer="layer1"
     showgrid="false"
     units="px" />
  <metadata
     id="metadata5">
    <rdf:RDF>
      <cc:Work
         rdf:about="">
        <dc:format>image/svg+xml</dc:format>
        <dc:type
           rdf:resource="http://purl.org/dc/dcmitype/StillImage" />
        <dc:title></dc:title>
      </cc:Work>
    </rdf:RDF>
  </metadata>
  <g
     inkscape:label="Layer 1"
     inkscape:groupmode="layer"
     id="layer1"
     transform="translate(0,-217.625)">
    <rect
       y="215.73512"
       x="-0.39647743"
       height="81.64286"
       width="133.44409"
       id="rect4749"
       style="opacity:1;fill:#3e3e3e;fill-opacity:1;stroke:none;stroke-width:0.35654101;stroke-linejoin:round;stroke-miterlimit:4;stroke-dasharray:none;stroke-dashoffset:0;stroke-opacity:1" />
    <path
       sodipodi:nodetypes="sscccsccccsccccccccccscccccsccccccccssccccsccscccccsccccccscczzzzzcc"
       style="fill:#ffffff;fill-opacity:1;stroke:none;stroke-width:0.04625756px"
       d="m 67.758865,228.36682 c -1.121628,-0.0123 -2.229307,0.0572 -3.294343,0.21129 -2.308656,0.33401 -5.053478,1.20476 -7.133416,2.26293 l -0.496378,0.25252 -0.688154,-0.17178 c -1.038369,-0.25925 -2.269933,-0.40228 -3.846996,-0.44691 -2.763997,-0.0782 -5.25239,0.29773 -6.831273,1.03211 l -0.671218,0.31207 -0.218001,0.73809 c -0.119862,0.40586 -0.272382,1.02011 -0.339024,1.36509 -0.172699,0.89374 -0.231658,2.6816 -0.120475,3.65264 0.18706,1.63372 0.761592,3.52101 1.478206,4.85424 l 0.361153,0.67196 -0.245322,0.74209 c -0.678976,2.05361 -0.910864,3.47497 -0.909981,5.57544 0,1.79405 0.144851,2.79362 0.630513,4.37097 1.446722,4.6985 5.621578,8.57225 11.443736,10.61837 0.654935,0.23017 0.753616,0.2928 1.301729,0.82856 0.751705,0.73476 1.623139,1.34147 2.599904,1.81028 1.103843,0.52981 1.835613,0.73509 3.360726,0.94194 2.28792,0.31029 4.032458,0.35719 6.086025,0.16376 1.128174,-0.10626 2.523086,-0.33615 3.113766,-0.51305 1.387824,-0.41563 2.785651,-1.24167 3.945616,-2.33164 0.792389,-0.74458 0.847562,-0.78123 1.611522,-1.06562 5.359289,-1.99508 9.168862,-5.49417 10.793008,-9.91377 0.682139,-1.85619 0.977983,-4.0745 0.80972,-6.07104 -0.114015,-1.35247 -0.399792,-2.82919 -0.766283,-3.95898 -0.152589,-0.47038 -0.277283,-0.88961 -0.277283,-0.93163 0,-0.042 0.212309,-0.48237 0.471789,-0.97858 1.648429,-3.15247 1.996241,-6.81724 0.955876,-10.07181 l -0.171286,-0.53567 -0.529434,-0.2488 c -2.441873,-1.14738 -7.474278,-1.42201 -10.884526,-0.59407 l -0.739512,0.17951 -1.362923,-0.62156 c -0.749622,-0.3418 -1.713229,-0.7419 -2.1415,-0.88926 -2.293747,-0.78923 -4.828378,-1.21252 -7.295961,-1.23969 z m -11.002815,9.02367 c 0.10131,0 3.67332,1.40559 3.747012,1.47445 0.12233,0.11431 -0.171986,0.70625 -0.515774,1.03727 -0.175193,0.16868 -0.466364,0.36606 -0.646903,0.43833 -1.764864,0.7065 -3.560219,-0.94798 -2.80616,-2.58588 0.09222,-0.20031 0.192003,-0.36417 0.221825,-0.36417 z m 20.799516,0.0744 c 0.01167,0.001 0.02038,0.003 0.02541,0.007 0.141487,0.10972 0.345306,0.75874 0.345306,1.0994 0,0.69253 -0.504589,1.41269 -1.206387,1.7221 -0.845036,0.37255 -1.621088,0.27651 -2.342019,-0.29031 -0.263673,-0.20731 -0.636795,-0.81918 -0.636795,-1.04214 5.64e-4,-0.18144 3.452515,-1.52575 3.814488,-1.49621 z m -9.98793,3.41987 c 1.620767,-0.003 3.242876,0.28791 4.129196,0.89298 1.197744,0.81765 0.811443,2.3943 -0.917629,3.74511 -0.622497,0.48631 -1.739446,1.03532 -2.445008,1.2019 -0.874808,0.20653 -1.527026,0.10642 -2.609195,-0.40025 -1.62954,-0.76295 -2.849868,-2.0665 -2.945758,-3.14703 -0.05209,-0.58689 0.03166,-0.8638 0.355414,-1.17527 0.760802,-0.73199 2.596111,-1.11382 4.43298,-1.11744 z m 0.127878,11.75212 c 0.99587,1e-5 2.471049,0.65765 3.629814,1.27119 1.779009,0.94193 6.606553,-3.53203 7.114761,-2.44927 0.508208,1.08277 -4.478898,7.41998 -5.515524,8.30014 -1.036627,0.88016 -2.935184,1.17818 -5.737109,1.17818 -2.801926,0 -3.663475,-0.29284 -5.399018,-1.17818 -1.735541,-0.88535 -5.944923,-7.35738 -5.341855,-8.30014 0.603068,-0.94276 4.37493,4.07239 6.974398,2.44927 1.43934,-0.89872 3.167667,-1.27119 4.274533,-1.27119 z"
       id="path4206"
       inkscape:connector-curvature="0" />
    <ellipse
       cy="280.76337"
       cx="94.493034"
       id="path4658"
       style="opacity:1;fill:none;fill-opacity:1;stroke:#f29312;stroke-width:0.64964885;stroke-linejoin:round;stroke-miterlimit:4;stroke-dasharray:none;stroke-dashoffset:0;stroke-opacity:1"
       rx="0.81318605"
       ry="0.85222977" />
    <ellipse
       cy="282.56744"
       cx="98.915154"
       id="path4658-6"
       style="opacity:1;fill:none;fill-opacity:1;stroke:#f29312;stroke-width:0.64964885;stroke-linejoin:round;stroke-miterlimit:4;stroke-dasharray:none;stroke-dashoffset:0;stroke-opacity:1"
       rx="0.81318605"
       ry="0.85222977" />
    <ellipse
       cy="281.63199"
       cx="103.33727"
       id="path4658-0"
       style="opacity:1;fill:none;fill-opacity:1;stroke:#f29312;stroke-width:0.64964885;stroke-linejoin:round;stroke-miterlimit:4;stroke-dasharray:none;stroke-dashoffset:0;stroke-opacity:1"
       rx="0.81318605"
       ry="0.85222977" />
    <ellipse
       cy="283.5029"
       cx="107.75939"
       id="path4658-62"
       style="opacity:1;fill:none;fill-opacity:1;stroke:#f29312;stroke-width:0.64964885;stroke-linejoin:round;stroke-miterlimit:4;stroke-dasharray:none;stroke-dashoffset:0;stroke-opacity:1"
       rx="0.81318605"
       ry="0.85222977" />
    <ellipse
       cy="287.51193"
       cx="112.18151"
       id="path4658-61"
       style="opacity:1;fill:none;fill-opacity:1;stroke:#f29312;stroke-width:0.64964885;stroke-linejoin:round;stroke-miterlimit:4;stroke-dasharray:none;stroke-dashoffset:0;stroke-opacity:1"
       rx="0.81318605"
       ry="0.85222977" />
    <ellipse
       cy="289.11554"
       cx="116.60365"
       id="path4658-8"
       style="opacity:1;fill:none;fill-opacity:1;stroke:#f29312;stroke-width:0.64964885;stroke-linejoin:round;stroke-miterlimit:4;stroke-dasharray:none;stroke-dashoffset:0;stroke-opacity:1"
       rx="0.81318605"
       ry="0.85222977" />
    <ellipse
       cy="287.24466"
       cx="121.02576"
       id="path4658-7"
       style="opacity:1;fill:none;fill-opacity:1;stroke:#f29312;stroke-width:0.64964885;stroke-linejoin:round;stroke-miterlimit:4;stroke-dasharray:none;stroke-dashoffset:0;stroke-opacity:1"
       rx="0.81318605"
       ry="0.85222977" />
    <ellipse
       cy="284.17105"
       cx="125.44788"
       id="path4658-9"
       style="opacity:1;fill:none;fill-opacity:1;stroke:#f29312;stroke-width:0.64964885;stroke-linejoin:round;stroke-miterlimit:4;stroke-dasharray:none;stroke-dashoffset:0;stroke-opacity:1"
       rx="0.81318605"
       ry="0.85222977" />
    <ellipse
       cy="287.11102"
       cx="129.87"
       id="path4658-2"
       style="opacity:1;fill:none;fill-opacity:1;stroke:#f29312;stroke-width:0.64964885;stroke-linejoin:round;stroke-miterlimit:4;stroke-dasharray:none;stroke-dashoffset:0;stroke-opacity:1"
       rx="0.81318605"
       ry="0.85222977" />
    <ellipse
       cy="276.95477"
       cx="90.070915"
       id="path4658-02"
       style="opacity:1;fill:none;fill-opacity:1;stroke:#f29312;stroke-width:0.64964885;stroke-linejoin:round;stroke-miterlimit:4;stroke-dasharray:none;stroke-dashoffset:0;stroke-opacity:1"
       rx="0.81318605"
       ry="0.85222977" />
    <rect
       style="opacity:1;fill:#4caf50;fill-opacity:1;stroke:none;stroke-width:0.37017277;stroke-linejoin:round;stroke-miterlimit:4;stroke-dasharray:none;stroke-dashoffset:0;stroke-opacity:1"
       id="rect4549"
       width="2.8063297"
       height="28.196936"
       x="0.93544322"
       y="268.80307" />
    <rect
       style="opacity:1;fill:#4caf50;fill-opacity:1;stroke:none;stroke-width:0.40050852;stroke-linejoin:round;stroke-miterlimit:4;stroke-dasharray:none;stroke-dashoffset:0;stroke-opacity:1"
       id="rect4549-3"
       width="2.8063297"
       height="33.007786"
       x="5.2782388"
       y="263.99222" />
    <rect
       style="opacity:1;fill:#4caf50;fill-opacity:1;stroke:none;stroke-width:0.42028871;stroke-linejoin:round;stroke-miterlimit:4;stroke-dasharray:none;stroke-dashoffset:0;stroke-opacity:1"
       id="rect4549-3-6"
       width="2.8063297"
       height="36.348656"
       x="9.6210346"
       y="260.65134" />
    <rect
       style="opacity:1;fill:#4caf50;fill-opacity:1;stroke:none;stroke-width:0.37798503;stroke-linejoin:round;stroke-miterlimit:4;stroke-dasharray:none;stroke-dashoffset:0;stroke-opacity:1"
       id="rect4549-3-7"
       width="2.8063297"
       height="29.399649"
       x="13.96383"
       y="267.60034" />
    <rect
       style="opacity:1;fill:#4caf50;fill-opacity:1;stroke:none;stroke-width:0.35586116;stroke-linejoin:round;stroke-miterlimit:4;stroke-dasharray:none;stroke-dashoffset:0;stroke-opacity:1"
       id="rect4549-3-5"
       width="2.8063297"
       height="26.058779"
       x="18.306627"
       y="270.94122" />
    <rect
       style="opacity:1;fill:#4caf50;fill-opacity:1;stroke:none;stroke-width:0.3585881;stroke-linejoin:round;stroke-miterlimit:4;stroke-dasharray:none;stroke-dashoffset:0;stroke-opacity:1"
       id="rect4549-3-3"
       width="2.8063297"
       height="26.459684"
       x="22.64942"
       y="270.54031" />
    <rect
       style="opacity:1;fill:#4caf50;fill-opacity:1;stroke:none;stroke-width:0.36487171;stroke-linejoin:round;stroke-miterlimit:4;stroke-dasharray:none;stroke-dashoffset:0;stroke-opacity:1"
       id="rect4549-3-3-5"
       width="2.8063297"
       height="27.395126"
       x="26.992218"
       y="269.60486" />
    <rect
       style="opacity:1;fill:#4caf50;fill-opacity:1;stroke:none;stroke-width:0.37626302;stroke-linejoin:round;stroke-miterlimit:4;stroke-dasharray:none;stroke-dashoffset:0;stroke-opacity:1"
       id="rect4549-3-3-6"
       width="2.8063297"
       height="29.132378"
       x="31.335012"
       y="267.86761" />
    <rect
       style="opacity:1;fill:#4caf50;fill-opacity:1;stroke:none;stroke-width:0.36929458;stroke-linejoin:round;stroke-miterlimit:4;stroke-dasharray:none;stroke-dashoffset:0;stroke-opacity:1"
       id="rect4549-3-3-2"
       width="2.8063297"
       height="28.063299"
       x="35.677811"
       y="268.93671" />
    <rect
       style="opacity:1;fill:#4caf50;fill-opacity:1;stroke:none;stroke-width:0.3603946;stroke-linejoin:round;stroke-miterlimit:4;stroke-dasharray:none;stroke-dashoffset:0;stroke-opacity:1"
       id="rect4549-3-3-9"
       width="2.8063297"
       height="26.726952"
       x="40.020603"
       y="270.27304" />
    <rect
       style="opacity:1;fill:#4caf50;fill-opacity:1;stroke:none;stroke-width:0.34473774;stroke-linejoin:round;stroke-miterlimit:4;stroke-dasharray:none;stroke-dashoffset:0;stroke-opacity:1"
       id="rect4549-3-3-1"
       width="2.8063297"
       height="24.45516"
       x="44.363396"
       y="272.54483" />
    <rect
       style="opacity:1;fill:#4caf50;fill-opacity:1;stroke:none;stroke-width:0.3263512;stroke-linejoin:round;stroke-miterlimit:4;stroke-dasharray:none;stroke-dashoffset:0;stroke-opacity:1"
       id="rect4549-3-3-27"
       width="2.8063297"
       height="21.9161"
       x="48.706196"
       y="275.08389" />
    <rect
       style="opacity:1;fill:#4caf50;fill-opacity:1;stroke:none;stroke-width:0.3312887;stroke-linejoin:round;stroke-miterlimit:4;stroke-dasharray:none;stroke-dashoffset:0;stroke-opacity:1"
       id="rect4549-3-3-0"
       width="2.8063297"
       height="22.584274"
       x="53.048992"
       y="274.41571" />
    <rect
       style="opacity:1;fill:#4caf50;fill-opacity:1;stroke:none;stroke-width:0.31418473;stroke-linejoin:round;stroke-miterlimit:4;stroke-dasharray:none;stroke-dashoffset:0;stroke-opacity:1"
       id="rect4549-3-3-93"
       width="2.8063297"
       height="20.312483"
       x="57.391785"
       y="276.68753" />
    <rect
       style="opacity:1;fill:#4caf50;fill-opacity:1;stroke:none;stroke-width:0.31418473;stroke-linejoin:round;stroke-miterlimit:4;stroke-dasharray:none;stroke-dashoffset:0;stroke-opacity:1"
       id="rect4549-3-3-93-5"
       width="2.8063297"
       height="20.312483"
       x="61.734585"
       y="276.68753" />
    <rect
       style="opacity:1;fill:#4caf50;fill-opacity:1;stroke:none;stroke-width:0.31418473;stroke-linejoin:round;stroke-miterlimit:4;stroke-dasharray:none;stroke-dashoffset:0;stroke-opacity:1"
       id="rect4549-3-3-93-9"
       width="2.8063297"
       height="20.312483"
       x="66.077377"
       y="276.68753" />
    <rect
       style="opacity:1;fill:#4caf50;fill-opacity:1;stroke:none;stroke-width:0.33539283;stroke-linejoin:round;stroke-miterlimit:4;stroke-dasharray:none;stroke-dashoffset:0;stroke-opacity:1"
       id="rect4549-3-3-93-9-2"
       width="2.8063297"
       height="23.147305"
       x="70.420174"
       y="273.85272" />
    <rect
       style="opacity:1;fill:#4caf50;fill-opacity:1;stroke:none;stroke-width:0.33812007;stroke-linejoin:round;stroke-miterlimit:4;stroke-dasharray:none;stroke-dashoffset:0;stroke-opacity:1"
       id="rect4549-3-3-93-9-28"
       width="2.8063297"
       height="23.52528"
       x="74.76297"
       y="273.47473" />
    <rect
       style="opacity:1;fill:#4caf50;fill-opacity:1;stroke:none;stroke-width:0.34350964;stroke-linejoin:round;stroke-miterlimit:4;stroke-dasharray:none;stroke-dashoffset:0;stroke-opacity:1"
       id="rect4549-3-3-93-9-9"
       width="2.8063297"
       height="24.281233"
       x="79.105759"
       y="272.71878" />
    <path
       inkscape:connector-curvature="0"
       id="path4818"
       d="m 16.036172,264.12585 3.741773,3.20723 13.898015,-3.0736 12.02713,2.27179 8.285353,4.54358 10.156243,5.21176 10.022607,2.93997 11.358954,-4.27632 6.681739,1.46998 19.644314,-4.67721 10.95805,3.74177 10.15624,-2.80633"
       style="fill:none;fill-rule:evenodd;stroke:#3e3e3e;stroke-width:3.165;stroke-linecap:butt;stroke-linejoin:miter;stroke-opacity:1;stroke-miterlimit:4;stroke-dasharray:none" />
    <path
       style="fill:none;fill-rule:evenodd;stroke:#00bfa5;stroke-width:1.465;stroke-linecap:butt;stroke-linejoin:miter;stroke-opacity:1;stroke-miterlimit:4;stroke-dasharray:none"
       d="m 16.036172,264.12585 3.741773,3.20723 13.898015,-3.0736 12.02713,2.27179 8.285353,4.54358 10.156243,5.21176 10.022607,2.93997 11.358954,-4.27632 6.681739,1.46998 19.644314,-4.67721 10.95805,3.74177 10.15624,-2.80633"
       id="path4656"
       inkscape:connector-curvature="0" />
    <ellipse
       cy="272.43143"
       cx="85.119629"
       id="path4658-73"
       style="opacity:1;fill:none;fill-opacity:1;stroke:#f29312;stroke-width:0.64964885;stroke-linejoin:round;stroke-miterlimit:4;stroke-dasharray:none;stroke-dashoffset:0;stroke-opacity:1"
       rx="0.81318605"
       ry="0.85222977" />
    <ellipse
       cy="270.39047"
       cx="80.697517"
       id="path4658-612"
       style="opacity:1;fill:none;fill-opacity:1;stroke:#f29312;stroke-width:0.64964885;stroke-linejoin:round;stroke-miterlimit:4;stroke-dasharray:none;stroke-dashoffset:0;stroke-opacity:1"
       rx="0.81318605"
       ry="0.85222977" />
    <ellipse
       cy="271.6756"
       cx="76.275391"
       id="path4658-93"
       style="opacity:1;fill:none;fill-opacity:1;stroke:#f29312;stroke-width:0.64964885;stroke-linejoin:round;stroke-miterlimit:4;stroke-dasharray:none;stroke-dashoffset:0;stroke-opacity:1"
       rx="0.81318605"
       ry="0.85222977" />
    <ellipse
       cy="271.29764"
       cx="71.853271"
       id="path4658-1"
       style="opacity:1;fill:none;fill-opacity:1;stroke:#f29312;stroke-width:0.64964885;stroke-linejoin:round;stroke-miterlimit:4;stroke-dasharray:none;stroke-dashoffset:0;stroke-opacity:1"
       rx="0.81318605"
       ry="0.85222977" />
  </g>
</svg>
