<svg style="position: absolute; width: 0; height: 0; overflow: hidden;" version="1.1" xmlns="http://www.w3.org/2000/svg" xmlns:xlink="http://www.w3.org/1999/xlink">
	<defs>
		<symbol id="link" viewBox="0 0 20 20">
			<path
				d="M7.859 14.691l-0.81 0.805c-0.701 0.695-1.843 0.695-2.545 0-0.336-0.334-0.521-0.779-0.521-1.252s0.186-0.916 0.521-1.252l2.98-2.955c0.617-0.613 1.779-1.515 2.626-0.675 0.389 0.386 1.016 0.384 1.403-0.005 0.385-0.389 0.383-1.017-0.006-1.402-1.438-1.428-3.566-1.164-5.419 0.675l-2.98 2.956c-0.715 0.709-1.108 1.654-1.108 2.658 0 1.006 0.394 1.949 1.108 2.658 0.736 0.73 1.702 1.096 2.669 1.096s1.934-0.365 2.669-1.096l0.811-0.805c0.389-0.385 0.391-1.012 0.005-1.4s-1.014-0.39-1.403-0.006zM16.891 3.207c-1.547-1.534-3.709-1.617-5.139-0.197l-1.009 1.002c-0.389 0.386-0.392 1.013-0.006 1.401 0.386 0.389 1.013 0.391 1.402 0.005l1.010-1.001c0.74-0.736 1.711-0.431 2.346 0.197 0.336 0.335 0.522 0.779 0.522 1.252s-0.186 0.917-0.522 1.251l-3.18 3.154c-1.454 1.441-2.136 0.766-2.427 0.477-0.389-0.386-1.016-0.383-1.401 0.005s-0.384 1.017 0.005 1.401c0.668 0.662 1.43 0.99 2.228 0.99 0.977 0 2.010-0.492 2.993-1.467l3.18-3.153c0.712-0.71 1.107-1.654 1.107-2.658s-0.395-1.949-1.109-2.659z"></path>
		</symbol>
		<symbol id="history" viewBox="0 0 27 32">
			<path class="path1" d="M27.429 16q0 2.786-1.089 5.321t-2.929 4.375-4.375 2.929-5.321 1.089q-3.071 0-5.839-1.295t-4.714-3.652q-0.125-0.179-0.116-0.402t0.152-0.366l2.446-2.464q0.179-0.161 0.446-0.161 0.286 0.036 0.411 0.214 1.304 1.696 3.196 2.625t4.018 0.929q1.857 0 3.545-0.723t2.92-1.955 1.955-2.92 0.723-3.545-0.723-3.545-1.955-2.92-2.92-1.955-3.545-0.723q-1.75 0-3.357 0.634t-2.857 1.813l2.446 2.464q0.554 0.536 0.25 1.232-0.304 0.714-1.054 0.714h-8q-0.464 0-0.804-0.339t-0.339-0.804v-8q0-0.75 0.714-1.054 0.696-0.304 1.232 0.25l2.321 2.304q1.911-1.804 4.366-2.795t5.080-0.991q2.786 0 5.321 1.089t4.375 2.929 2.929 4.375 1.089 5.321zM16 10.857v8q0 0.25-0.161 0.411t-0.411 0.161h-5.714q-0.25 0-0.411-0.161t-0.161-0.411v-1.143q0-0.25 0.161-0.411t0.411-0.161h4v-6.286q0-0.25 0.161-0.411t0.411-0.161h1.143q0.25 0 0.411 0.161t0.161 0.411z"></path>
		</symbol>
		<symbol id="ok" viewBox="0 0 32 32">
			<path
				d="M29.839 10.107q0 0.714-0.5 1.214l-15.357 15.357q-0.5 0.5-1.214 0.5t-1.214-0.5l-8.893-8.893q-0.5-0.5-0.5-1.214t0.5-1.214l2.429-2.429q0.5-0.5 1.214-0.5t1.214 0.5l5.25 5.268 11.714-11.732q0.5-0.5 1.214-0.5t1.214 0.5l2.429 2.429q0.5 0.5 0.5 1.214z"></path>
		</symbol>
		<symbol id="web" viewBox="0 0 27 32">
			<path
				d="M13.714 2.286q3.732 0 6.884 1.839t4.991 4.991 1.839 6.884-1.839 6.884-4.991 4.991-6.884 1.839-6.884-1.839-4.991-4.991-1.839-6.884 1.839-6.884 4.991-4.991 6.884-1.839zM18.607 11.589q-0.036 0.018-0.17 0.17t-0.241 0.17q0.036 0 0.080-0.089t0.089-0.196 0.063-0.125q0.107-0.125 0.393-0.268 0.25-0.107 0.929-0.214 0.607-0.143 0.911 0.196-0.036-0.036 0.17-0.232t0.259-0.214q0.054-0.036 0.268-0.080t0.268-0.134l0.036-0.393q-0.214 0.018-0.313-0.125t-0.116-0.375q0 0.036-0.107 0.143 0-0.125-0.080-0.143t-0.205 0.018-0.161 0.018q-0.179-0.054-0.268-0.134t-0.143-0.295-0.071-0.268q-0.036-0.089-0.17-0.188t-0.17-0.188q-0.018-0.036-0.045-0.098t-0.054-0.116-0.071-0.098-0.098-0.045-0.125 0.089-0.134 0.179-0.080 0.089q-0.054-0.036-0.107-0.027t-0.080 0.018-0.080 0.054-0.089 0.063q-0.054 0.036-0.152 0.054t-0.152 0.036q0.268-0.089-0.018-0.196-0.179-0.071-0.286-0.054 0.161-0.071 0.134-0.214t-0.152-0.25h0.089q-0.018-0.071-0.152-0.152t-0.313-0.152-0.232-0.107q-0.143-0.089-0.607-0.17t-0.589-0.009q-0.089 0.107-0.080 0.188t0.071 0.25 0.063 0.223q0.018 0.107-0.098 0.232t-0.116 0.214q0 0.125 0.25 0.277t0.179 0.384q-0.054 0.143-0.286 0.286t-0.286 0.214q-0.089 0.143-0.027 0.33t0.188 0.295q0.036 0.036 0.027 0.071t-0.063 0.080-0.098 0.071-0.116 0.063l-0.054 0.036q-0.196 0.089-0.366-0.107t-0.241-0.464q-0.125-0.446-0.286-0.536-0.411-0.143-0.518 0.018-0.089-0.232-0.732-0.464-0.446-0.161-1.036-0.071 0.107-0.018 0-0.268-0.125-0.268-0.339-0.214 0.054-0.107 0.071-0.313t0.018-0.241q0.054-0.232 0.214-0.411 0.018-0.018 0.125-0.152t0.17-0.241 0.009-0.107q0.625 0.071 0.893-0.196 0.089-0.089 0.205-0.304t0.188-0.304q0.161-0.107 0.25-0.098t0.259 0.098 0.259 0.089q0.25 0.018 0.277-0.196t-0.134-0.357q0.214 0.018 0.054-0.304-0.089-0.125-0.143-0.161-0.214-0.071-0.482 0.089-0.143 0.071 0.036 0.143-0.018-0.018-0.17 0.188t-0.295 0.313-0.286-0.089q-0.018-0.018-0.098-0.241t-0.17-0.241q-0.143 0-0.286 0.268 0.054-0.143-0.196-0.268t-0.429-0.143q0.339-0.214-0.143-0.482-0.125-0.071-0.366-0.089t-0.348 0.071q-0.089 0.125-0.098 0.205t0.089 0.143 0.188 0.098 0.205 0.071 0.152 0.054q0.25 0.179 0.143 0.25-0.036 0.018-0.152 0.063t-0.205 0.080-0.107 0.071q-0.054 0.071 0 0.25t-0.036 0.25q-0.089-0.089-0.161-0.313t-0.125-0.295q0.125 0.161-0.446 0.107l-0.179-0.018q-0.071 0-0.286 0.036t-0.366 0.018-0.241-0.143q-0.071-0.143 0-0.357 0.018-0.071 0.071-0.036-0.071-0.054-0.196-0.17t-0.179-0.152q-0.821 0.268-1.679 0.732 0.107 0.018 0.214-0.018 0.089-0.036 0.232-0.116t0.179-0.098q0.607-0.25 0.75-0.125l0.089-0.089q0.25 0.286 0.357 0.446-0.125-0.071-0.536-0.018-0.357 0.107-0.393 0.214 0.125 0.214 0.089 0.321-0.071-0.054-0.205-0.179t-0.259-0.196-0.268-0.089q-0.286 0-0.393 0.018-2.607 1.429-4.196 3.964 0.125 0.125 0.214 0.143 0.071 0.018 0.089 0.161t0.045 0.196 0.205-0.054q0.161 0.143 0.054 0.339 0.018-0.018 0.786 0.482 0.339 0.304 0.375 0.375 0.054 0.196-0.179 0.321-0.018-0.036-0.161-0.161t-0.161-0.071q-0.054 0.089 0.009 0.33t0.188 0.223q-0.125 0-0.17 0.286t-0.045 0.634-0.018 0.42l0.036 0.018q-0.054 0.214 0.098 0.616t0.384 0.348q-0.232 0.054 0.357 0.768 0.107 0.143 0.143 0.161 0.054 0.036 0.214 0.134t0.268 0.179 0.179 0.188q0.071 0.089 0.179 0.402t0.25 0.42q-0.036 0.107 0.17 0.357t0.188 0.411q-0.018 0-0.045 0.018t-0.045 0.018q0.054 0.125 0.277 0.25t0.277 0.232q0.018 0.054 0.036 0.179t0.054 0.196 0.143 0.036q0.036-0.357-0.429-1.107-0.268-0.446-0.304-0.518-0.054-0.089-0.098-0.277t-0.080-0.259q0.036 0 0.107 0.027t0.152 0.063 0.134 0.071 0.036 0.054q-0.054 0.125 0.036 0.313t0.214 0.33 0.304 0.339 0.214 0.232q0.107 0.107 0.25 0.348t0 0.241q0.161 0 0.357 0.179t0.304 0.357q0.089 0.143 0.143 0.464t0.089 0.429q0.036 0.125 0.152 0.241t0.223 0.17l0.286 0.143t0.232 0.125q0.089 0.036 0.33 0.188t0.384 0.205q0.179 0.071 0.286 0.071t0.259-0.045 0.241-0.063q0.268-0.036 0.518 0.268t0.375 0.375q0.643 0.339 0.982 0.196-0.036 0.018 0.009 0.134t0.143 0.277 0.161 0.259 0.098 0.152q0.089 0.107 0.321 0.268t0.321 0.268q0.107-0.071 0.125-0.161-0.054 0.143 0.125 0.357t0.321 0.179q0.25-0.054 0.25-0.571-0.554 0.268-0.875-0.321 0-0.018-0.045-0.098t-0.071-0.152-0.045-0.152 0-0.134 0.089-0.054q0.161 0 0.179-0.063t-0.036-0.223-0.071-0.232q-0.018-0.143-0.196-0.357t-0.214-0.268q-0.089 0.161-0.286 0.143t-0.286-0.161q0 0.018-0.027 0.098t-0.027 0.116q-0.232 0-0.268-0.018 0.018-0.054 0.045-0.313t0.063-0.402q0.018-0.071 0.098-0.214t0.134-0.259 0.071-0.223-0.080-0.17-0.313-0.045q-0.339 0.018-0.464 0.357-0.018 0.054-0.054 0.188t-0.089 0.205-0.161 0.125q-0.125 0.054-0.429 0.036t-0.429-0.089q-0.232-0.143-0.402-0.518t-0.17-0.661q0-0.179 0.045-0.473t0.054-0.446-0.098-0.438q0.054-0.036 0.161-0.17t0.179-0.188q0.036-0.018 0.080-0.027t0.080 0 0.071-0.027 0.054-0.107q-0.018-0.018-0.071-0.054-0.054-0.054-0.071-0.054 0.125 0.054 0.509-0.027t0.491 0.027q0.268 0.196 0.393-0.036 0-0.018-0.045-0.17t-0.009-0.241q0.089 0.482 0.518 0.161 0.054 0.054 0.277 0.089t0.313 0.089q0.054 0.036 0.125 0.098t0.098 0.080 0.089-0.009 0.152-0.116q0.179 0.25 0.214 0.429 0.196 0.714 0.339 0.786 0.125 0.054 0.196 0.036t0.080-0.17 0-0.25-0.027-0.223l-0.018-0.143v-0.321l-0.018-0.143q-0.268-0.054-0.33-0.214t0.027-0.33 0.268-0.33q0.018-0.018 0.143-0.063t0.277-0.116 0.223-0.143q0.375-0.339 0.268-0.625 0.125 0 0.196-0.161-0.018 0-0.089-0.054t-0.134-0.089-0.080-0.036q0.161-0.089 0.036-0.286 0.089-0.054 0.134-0.196t0.134-0.179q0.161 0.214 0.375 0.036 0.125-0.143 0.018-0.286 0.089-0.125 0.366-0.188t0.33-0.17q0.125 0.036 0.143-0.036t0.018-0.214 0.054-0.214q0.071-0.089 0.268-0.161t0.232-0.089l0.304-0.196q0.054-0.071 0-0.071 0.321 0.036 0.554-0.196 0.179-0.196-0.107-0.357 0.054-0.107-0.054-0.17t-0.268-0.098q0.054-0.018 0.205-0.009t0.188-0.027q0.268-0.179-0.125-0.286-0.304-0.089-0.768 0.214zM15.696 27.25q3.679-0.643 6.268-3.375-0.054-0.054-0.223-0.080t-0.223-0.063q-0.321-0.125-0.429-0.143 0.018-0.125-0.045-0.232t-0.143-0.161-0.223-0.143-0.196-0.125q-0.036-0.036-0.125-0.107t-0.125-0.098-0.134-0.080-0.152-0.036-0.179 0.018l-0.054 0.018q-0.054 0.018-0.098 0.045t-0.098 0.054-0.071 0.054 0 0.045q-0.375-0.304-0.643-0.393-0.089-0.018-0.196-0.098t-0.188-0.125-0.179-0.027-0.205 0.125q-0.089 0.089-0.107 0.268t-0.036 0.232q-0.125-0.089 0-0.313t0.036-0.33q-0.054-0.107-0.188-0.080t-0.214 0.080-0.205 0.152-0.161 0.116-0.152 0.098-0.152 0.134q-0.054 0.071-0.107 0.214t-0.089 0.196q-0.036-0.071-0.205-0.116t-0.17-0.098q0.036 0.179 0.071 0.625t0.089 0.679q0.125 0.554-0.214 0.857-0.482 0.446-0.518 0.714-0.071 0.393 0.214 0.464 0 0.125-0.143 0.366t-0.125 0.384q0 0.107 0.036 0.286z"></path>
		</symbol>
		<symbol id="comment" viewBox="0 0 32 32">
			<path
				d="M16 6.857q-3.643 0-6.813 1.241t-5.036 3.348-1.866 4.554q0 2 1.277 3.813t3.598 3.134l1.554 0.893-0.482 1.714q-0.429 1.625-1.25 3.071 2.714-1.125 4.911-3.054l0.768-0.679 1.018 0.107q1.232 0.143 2.321 0.143 3.643 0 6.812-1.241t5.036-3.348 1.866-4.554-1.866-4.554-5.036-3.348-6.813-1.241zM32 16q0 3.107-2.143 5.741t-5.821 4.161-8.036 1.527q-1.25 0-2.589-0.143-3.536 3.125-8.214 4.321-0.875 0.25-2.036 0.393h-0.089q-0.268 0-0.482-0.188t-0.286-0.491v-0.018q-0.054-0.071-0.009-0.214t0.036-0.179 0.080-0.17l0.107-0.161t0.125-0.152 0.143-0.161q0.125-0.143 0.554-0.616t0.616-0.679 0.554-0.705 0.58-0.911 0.482-1.054 0.464-1.357q-2.804-1.589-4.42-3.929t-1.616-5.018q0-3.107 2.143-5.741t5.821-4.161 8.036-1.527 8.036 1.527 5.821 4.161 2.143 5.741z"></path>
		</symbol>
		<symbol id="clipboard" viewBox="0 0 32 32">
			<path
				d="M13.714 29.714h16v-11.429h-7.429q-0.714 0-1.214-0.5t-0.5-1.214v-7.429h-6.857v20.571zM18.286 4v-1.143q0-0.232-0.17-0.402t-0.402-0.17h-12.571q-0.232 0-0.402 0.17t-0.17 0.402v1.143q0 0.232 0.17 0.402t0.402 0.17h12.571q0.232 0 0.402-0.17t0.17-0.402zM22.857 16h5.339l-5.339-5.339v5.339zM32 18.286v12q0 0.714-0.5 1.214t-1.214 0.5h-17.143q-0.714 0-1.214-0.5t-0.5-1.214v-2.857h-9.714q-0.714 0-1.214-0.5t-0.5-1.214v-24q0-0.714 0.5-1.214t1.214-0.5h19.429q0.714 0 1.214 0.5t0.5 1.214v5.857q0.375 0.232 0.643 0.5l7.286 7.286q0.5 0.5 0.857 1.357t0.357 1.571z"></path>
		</symbol>
		<symbol id="pdf" viewBox="0 0 27 32">
			<path
				d="M26.214 6.786q0.5 0.5 0.857 1.357t0.357 1.571v20.571q0 0.714-0.5 1.214t-1.214 0.5h-24q-0.714 0-1.214-0.5t-0.5-1.214v-28.571q0-0.714 0.5-1.214t1.214-0.5h16q0.714 0 1.571 0.357t1.357 0.857zM18.286 2.429v6.714h6.714q-0.179-0.518-0.393-0.732l-5.589-5.589q-0.214-0.214-0.732-0.393zM25.143 29.714v-18.286h-7.429q-0.714 0-1.214-0.5t-0.5-1.214v-7.429h-13.714v27.429h22.857zM15.964 19.125q0.589 0.464 1.5 1 1.054-0.125 2.089-0.125 2.625 0 3.161 0.875 0.286 0.393 0.036 0.929 0 0.018-0.018 0.036l-0.036 0.036v0.018q-0.107 0.679-1.268 0.679-0.857 0-2.054-0.357t-2.321-0.946q-3.946 0.429-7 1.482-2.732 4.679-4.321 4.679-0.268 0-0.5-0.125l-0.429-0.214q-0.018-0.018-0.107-0.089-0.179-0.179-0.107-0.643 0.161-0.714 1-1.634t2.357-1.723q0.25-0.161 0.411 0.107 0.036 0.036 0.036 0.071 0.929-1.518 1.911-3.518 1.214-2.429 1.857-4.679-0.429-1.464-0.545-2.848t0.116-2.277q0.196-0.714 0.75-0.714h0.393q0.411 0 0.625 0.268 0.321 0.375 0.161 1.214-0.036 0.107-0.071 0.143 0.018 0.054 0.018 0.143v0.536q-0.036 2.196-0.25 3.429 0.982 2.929 2.607 4.25zM5.679 26.464q0.929-0.429 2.446-2.821-0.911 0.714-1.563 1.5t-0.884 1.321zM12.786 10.036q-0.268 0.75-0.036 2.357 0.018-0.125 0.125-0.786 0-0.054 0.125-0.768 0.018-0.071 0.071-0.143-0.018-0.018-0.018-0.036t-0.009-0.027-0.009-0.027q-0.018-0.393-0.232-0.643 0 0.018-0.018 0.036v0.036zM10.571 21.839q2.411-0.964 5.071-1.446-0.036-0.018-0.232-0.17t-0.286-0.241q-1.357-1.196-2.268-3.143-0.482 1.536-1.482 3.518-0.536 1-0.804 1.482zM22.107 21.554q-0.429-0.429-2.5-0.429 1.357 0.5 2.214 0.5 0.25 0 0.321-0.018 0-0.018-0.036-0.054z"></path>
		</symbol>
		<symbol id="jsfiddle" viewBox="0 0 37 32">
			<path
				d="M32.143 13.786q1.982 0.821 3.205 2.598t1.223 3.955q0 2.929-2.107 5.009t-5.089 2.080q-0.071 0-0.205-0.009t-0.188-0.009h-21.732q-3.036-0.179-5.143-2.241t-2.107-5.009q0-1.964 0.982-3.625t2.625-2.625q-0.214-0.696-0.214-1.464 0-2.054 1.464-3.5t3.554-1.446q1.696 0 3.071 1.036 1.339-2.75 3.973-4.429t5.83-1.679q2.964 0 5.464 1.438t3.955 3.902 1.455 5.375q0 0.107-0.009 0.321t-0.009 0.321zM8.357 18.536q0 2.179 1.5 3.446t3.714 1.268q2.446 0 4.286-1.768-0.286-0.357-0.848-1.009t-0.777-0.902q-1.196 1.161-2.571 1.161-0.982 0-1.67-0.598t-0.688-1.563q0-0.946 0.688-1.554t1.634-0.607q0.786 0 1.509 0.375t1.304 0.982 1.161 1.339 1.232 1.464 1.375 1.339 1.732 0.982 2.17 0.375q2.161 0 3.652-1.277t1.491-3.402q0-2.161-1.5-3.429t-3.696-1.268q-2.554 0-4.304 1.732 0.25 0.286 0.527 0.607t0.616 0.714 0.518 0.607q1.179-1.143 2.536-1.143 0.929 0 1.643 0.589t0.714 1.5q0 1.018-0.661 1.634t-1.679 0.616q-0.768 0-1.473-0.375t-1.286-0.982-1.17-1.339-1.241-1.464-1.384-1.339-1.723-0.982-2.116-0.375q-2.179 0-3.696 1.259t-1.518 3.384z"></path>
		</symbol>
		<symbol id="facebook" viewBox="0 0 19 32">
			<path d="M17.125 0.214v4.714h-2.804q-1.536 0-2.071 0.643t-0.536 1.929v3.375h5.232l-0.696 5.286h-4.536v13.554h-5.464v-13.554h-4.554v-5.286h4.554v-3.893q0-3.321 1.857-5.152t4.946-1.83q2.625 0 4.071 0.214z"></path>
		</symbol>
		<symbol id="clock" viewBox="0 0 27 32">
			<path
				d="M16 9.714v8q0 0.25-0.161 0.411t-0.411 0.161h-5.714q-0.25 0-0.411-0.161t-0.161-0.411v-1.143q0-0.25 0.161-0.411t0.411-0.161h4v-6.286q0-0.25 0.161-0.411t0.411-0.161h1.143q0.25 0 0.411 0.161t0.161 0.411zM23.429 16q0-2.643-1.304-4.875t-3.536-3.536-4.875-1.304-4.875 1.304-3.536 3.536-1.304 4.875 1.304 4.875 3.536 3.536 4.875 1.304 4.875-1.304 3.536-3.536 1.304-4.875zM27.429 16q0 3.732-1.839 6.884t-4.991 4.991-6.884 1.839-6.884-1.839-4.991-4.991-1.839-6.884 1.839-6.884 4.991-4.991 6.884-1.839 6.884 1.839 4.991 4.991 1.839 6.884z"></path>
		</symbol>
		<symbol id="twitter" viewBox="0 0 30 32">
			<path
				d="M28.929 7.286q-1.196 1.75-2.893 2.982 0.018 0.25 0.018 0.75 0 2.321-0.679 4.634t-2.063 4.437-3.295 3.759-4.607 2.607-5.768 0.973q-4.839 0-8.857-2.589 0.625 0.071 1.393 0.071 4.018 0 7.161-2.464-1.875-0.036-3.357-1.152t-2.036-2.848q0.589 0.089 1.089 0.089 0.768 0 1.518-0.196-2-0.411-3.313-1.991t-1.313-3.67v-0.071q1.214 0.679 2.607 0.732-1.179-0.786-1.875-2.054t-0.696-2.75q0-1.571 0.786-2.911 2.161 2.661 5.259 4.259t6.634 1.777q-0.143-0.679-0.143-1.321 0-2.393 1.688-4.080t4.080-1.688q2.5 0 4.214 1.821 1.946-0.375 3.661-1.393-0.661 2.054-2.536 3.179 1.661-0.179 3.321-0.893z"></path>
		</symbol>
		<symbol id="github" viewBox="0 0 30 32">
			<path
				d="M11.429 21.714q0 0.714-0.223 1.464t-0.768 1.357-1.295 0.607-1.295-0.607-0.768-1.357-0.223-1.464 0.223-1.464 0.768-1.357 1.295-0.607 1.295 0.607 0.768 1.357 0.223 1.464zM22.857 21.714q0 0.714-0.223 1.464t-0.768 1.357-1.295 0.607-1.295-0.607-0.768-1.357-0.223-1.464 0.223-1.464 0.768-1.357 1.295-0.607 1.295 0.607 0.768 1.357 0.223 1.464zM25.714 21.714q0-2.143-1.232-3.643t-3.339-1.5q-0.732 0-3.482 0.375-1.268 0.196-2.804 0.196t-2.804-0.196q-2.714-0.375-3.482-0.375-2.107 0-3.339 1.5t-1.232 3.643q0 1.571 0.571 2.741t1.446 1.839 2.179 1.071 2.5 0.527 2.661 0.125h3q1.464 0 2.661-0.125t2.5-0.527 2.179-1.071 1.446-1.839 0.571-2.741zM29.714 18.571q0 3.696-1.089 5.911-0.679 1.375-1.884 2.375t-2.518 1.536-3.036 0.848-3.063 0.393-2.982 0.080q-1.393 0-2.536-0.054t-2.634-0.223-2.723-0.536-2.446-0.92-2.161-1.446-1.536-2.054q-1.107-2.196-1.107-5.911 0-4.232 2.429-7.071-0.482-1.464-0.482-3.036 0-2.071 0.911-3.893 1.929 0 3.393 0.705t3.375 2.205q2.625-0.625 5.518-0.625 2.643 0 5 0.571 1.875-1.464 3.339-2.161t3.375-0.696q0.911 1.821 0.911 3.893 0 1.554-0.482 3 2.429 2.857 2.429 7.107z"></path>
		</symbol>
		<symbol id="calendar" viewBox="0 0 30 32">
			<path
				d="M2.286 29.714h5.143v-5.143h-5.143v5.143zM8.571 29.714h5.714v-5.143h-5.714v5.143zM2.286 23.429h5.143v-5.714h-5.143v5.714zM8.571 23.429h5.714v-5.714h-5.714v5.714zM2.286 16.571h5.143v-5.143h-5.143v5.143zM15.429 29.714h5.714v-5.143h-5.714v5.143zM8.571 16.571h5.714v-5.143h-5.714v5.143zM22.286 29.714h5.143v-5.143h-5.143v5.143zM15.429 23.429h5.714v-5.714h-5.714v5.714zM9.143 8v-5.143q0-0.232-0.17-0.402t-0.402-0.17h-1.143q-0.232 0-0.402 0.17t-0.17 0.402v5.143q0 0.232 0.17 0.402t0.402 0.17h1.143q0.232 0 0.402-0.17t0.17-0.402zM22.286 23.429h5.143v-5.714h-5.143v5.714zM15.429 16.571h5.714v-5.143h-5.714v5.143zM22.286 16.571h5.143v-5.143h-5.143v5.143zM22.857 8v-5.143q0-0.232-0.17-0.402t-0.402-0.17h-1.143q-0.232 0-0.402 0.17t-0.17 0.402v5.143q0 0.232 0.17 0.402t0.402 0.17h1.143q0.232 0 0.402-0.17t0.17-0.402zM29.714 6.857v22.857q0 0.929-0.679 1.607t-1.607 0.679h-25.143q-0.929 0-1.607-0.679t-0.679-1.607v-22.857q0-0.929 0.679-1.607t1.607-0.679h2.286v-1.714q0-1.179 0.839-2.018t2.018-0.839h1.143q1.179 0 2.018 0.839t0.839 2.018v1.714h6.857v-1.714q0-1.179 0.839-2.018t2.018-0.839h1.143q1.179 0 2.018 0.839t0.839 2.018v1.714h2.286q0.929 0 1.607 0.679t0.679 1.607z"></path>
		</symbol>
		<symbol id="google-plus" viewBox="0 0 32 32">
			<path
				d="M10.181 14.294v3.494h5.775c-0.231 1.5-1.744 4.394-5.775 4.394-3.475 0-6.313-2.881-6.313-6.431s2.838-6.431 6.313-6.431c1.981 0 3.3 0.844 4.056 1.569l2.762-2.662c-1.775-1.656-4.075-2.662-6.819-2.662-5.631 0.006-10.181 4.556-10.181 10.188s4.55 10.181 10.181 10.181c5.875 0 9.775-4.131 9.775-9.95 0-0.669-0.075-1.181-0.163-1.688h-9.613z"></path>
			<path class="path2" d="M32 14h-3v-3h-3v3h-3v3h3v3h3v-3h3z"></path>
		</symbol>
		<symbol id="youtube" viewBox="0 0 32 32">
			<path
				d="M31.681 9.6c0 0-0.313-2.206-1.275-3.175-1.219-1.275-2.581-1.281-3.206-1.356-4.475-0.325-11.194-0.325-11.194-0.325h-0.012c0 0-6.719 0-11.194 0.325-0.625 0.075-1.987 0.081-3.206 1.356-0.963 0.969-1.269 3.175-1.269 3.175s-0.319 2.588-0.319 5.181v2.425c0 2.587 0.319 5.181 0.319 5.181s0.313 2.206 1.269 3.175c1.219 1.275 2.819 1.231 3.531 1.369 2.563 0.244 10.881 0.319 10.881 0.319s6.725-0.012 11.2-0.331c0.625-0.075 1.988-0.081 3.206-1.356 0.962-0.969 1.275-3.175 1.275-3.175s0.319-2.587 0.319-5.181v-2.425c-0.006-2.588-0.325-5.181-0.325-5.181zM12.694 20.15v-8.994l8.644 4.513-8.644 4.481z"></path>
		</symbol>
	</defs>
</svg>
