<?xml version="1.0" encoding="UTF-8" standalone="no"?>
<svg
   xmlns:dc="http://purl.org/dc/elements/1.1/"
   xmlns:cc="http://creativecommons.org/ns#"
   xmlns:rdf="http://www.w3.org/1999/02/22-rdf-syntax-ns#"
   xmlns:svg="http://www.w3.org/2000/svg"
   xmlns="http://www.w3.org/2000/svg"
   xmlns:sodipodi="http://sodipodi.sourceforge.net/DTD/sodipodi-0.dtd"
   xmlns:inkscape="http://www.inkscape.org/namespaces/inkscape"
   width="1792"
   height="1792"
   viewBox="0 0 1792 1792"
   id="svg4200"
   version="1.1"
   inkscape:version="0.91 r13725"
   sodipodi:docname="warning.svg">
  <metadata
     id="metadata4208">
    <rdf:RDF>
      <cc:Work
         rdf:about="">
        <dc:format>image/svg+xml</dc:format>
        <dc:type
           rdf:resource="http://purl.org/dc/dcmitype/StillImage" />
      </cc:Work>
    </rdf:RDF>
  </metadata>
  <defs
     id="defs4206" />
  <sodipodi:namedview
     pagecolor="#ffffff"
     bordercolor="#666666"
     borderopacity="1"
     objecttolerance="10"
     gridtolerance="10"
     guidetolerance="10"
     inkscape:pageopacity="0"
     inkscape:pageshadow="2"
     inkscape:window-width="1920"
     inkscape:window-height="998"
     id="namedview4204"
     showgrid="false"
     inkscape:zoom="0.43582589"
     inkscape:cx="896"
     inkscape:cy="896"
     inkscape:window-x="1920"
     inkscape:window-y="52"
     inkscape:window-maximized="0"
     inkscape:current-layer="svg4200"
     showguides="true"
     inkscape:guide-bbox="true" />
  <path
     style="opacity:1;fill:#ffa726;fill-opacity:1;stroke:none;stroke-width:3;stroke-linejoin:round;stroke-miterlimit:4;stroke-dasharray:none;stroke-dashoffset:0;stroke-opacity:1"
     d="M 552.29492,66.222656 66.222656,552.29492 l 0,687.41018 486.072264,486.0722 687.41018,0 486.0722,-486.0722 0,-687.41018 L 1239.7051,66.222656 Z M 798,448 l 196,0 c 7.3333,0 15.3333,3.66667 24,11 6.6667,4.66667 10,11 10,19 l -18,539 c -0.6667,6.6667 -4.1667,12.1667 -10.5,16.5 -6.33333,4.3333 -14.16667,6.5 -23.5,6.5 l -161,0 c -9.33333,0 -17.33333,-2.1667 -24,-6.5 -6.66667,-4.3333 -10,-9.8333 -10,-16.5 L 764,480 c 0,-9.33333 3.33333,-16.33333 10,-21 8.66667,-7.33333 16.66667,-11 24,-11 z m 14,720 168,0 c 8.66667,0 16.16667,3.1667 22.5,9.5 6.3333,6.3333 9.5,14.1667 9.5,23.5 l 0,190 c 0,9.3333 -3.1667,17.1667 -9.5,23.5 -6.33333,6.3333 -13.83333,9.5 -22.5,9.5 l -168,0 c -8.66667,0 -16.16667,-3.1667 -22.5,-9.5 -6.33333,-6.3333 -9.5,-14.1667 -9.5,-23.5 l 0,-190 c 0,-9.3333 3.16667,-17.1667 9.5,-23.5 6.33333,-6.3333 13.83333,-9.5 22.5,-9.5 z"
     id="path4228"
     inkscape:connector-curvature="0"
     sodipodi:nodetypes="cccccccccsscccsssscccssssssssssssss" />
</svg>
